0
SECTION
2
HEADER
9
$INSUNITS
70
4
9
$ACADVER
1
AC1014
9
$HANDSEED
5
FFFF
0
ENDSEC
0
SECTION
2
TABLES
0
TABLE
2
VPORT
5
8
100
AcDbSymbolTable
0
ENDTAB
0
TABLE
2
LTYPE
5
5
100
AcDbSymbolTable
0
LTYPE
5
14
100
AcDbSymbolTableRecord
100
AcDbLinetypeTableRecord
2
BYBLOCK
70
0
0
LTYPE
5
15
100
AcDbSymbolTableRecord
100
AcDbLinetypeTableRecord
2
BYLAYER
70
0
0
ENDTAB
0
TABLE
2
LAYER
5
2
100
AcDbSymbolTable
70
2
0
LAYER
5
50
100
AcDbSymbolTableRecord
100
AcDbLayerTableRecord
2
0
70
0
6
CONTINUOUS
0
ENDTAB
0
TABLE
2
STYLE
5
3
100
AcDbSymbolTable
70
1
0
STYLE
5
11
100
AcDbSymbolTableRecord
100
AcDbTextStyleTableRecord
2
STANDARD
70
0
0
ENDTAB
0
TABLE
2
VIEW
5
6
100
AcDbSymbolTable
70
0
0
ENDTAB
0
TABLE
2
UCS
5
7
100
AcDbSymbolTable
70
0
0
ENDTAB
0
TABLE
2
APPID
5
9
100
AcDbSymbolTable
70
2
0
APPID
5
12
100
AcDbSymbolTableRecord
100
AcDbRegAppTableRecord
2
ACAD
70
0
0
ENDTAB
0
TABLE
2
DIMSTYLE
5
A
100
AcDbSymbolTable
70
1
0
ENDTAB
0
TABLE
2
BLOCK_RECORD
5
1
100
AcDbSymbolTable
70
1
0
BLOCK_RECORD
5
1F
100
AcDbSymbolTableRecord
100
AcDbBlockTableRecord
2
*MODEL_SPACE
0
BLOCK_RECORD
5
1B
100
AcDbSymbolTableRecord
100
AcDbBlockTableRecord
2
*PAPER_SPACE
0
ENDTAB
0
ENDSEC
0
SECTION
2
BLOCKS
0
BLOCK
5
20
100
AcDbEntity
100
AcDbBlockBegin
2
*MODEL_SPACE
0
ENDBLK
5
21
100
AcDbEntity
100
AcDbBlockEnd
0
BLOCK
5
1C
100
AcDbEntity
100
AcDbBlockBegin
2
*PAPER_SPACE
0
ENDBLK
5
1D
100
AcDbEntity
100
AcDbBlockEnd
0
ENDSEC
0
SECTION
2
ENTITIES
0
ARC
5
100
100
AcDbEntity
8
0
100
AcDbCircle
10
70.485000000000014
20
33.147000000000006
30
0
40
2.5399999999999991
210
0
220
-0
230
1
100
AcDbArc
50
0.11279999999917044
51
90.112800000000149
0
LINE
5
101
100
AcDbEntity
8
0
100
AcDbLine
10
70.485000000000014
20
-25.399999999999999
30
0
11
2.5450000000000017
21
-25.399999999999999
31
0
0
LINE
5
102
100
AcDbEntity
8
0
100
AcDbLine
10
0
20
-22.864999999999998
30
0
11
0
21
33.142000000000003
31
0
0
CIRCLE
5
103
100
AcDbEntity
8
0
100
AcDbCircle
10
5.1647999999999996
20
-15.590000000000002
30
0
40
0.32500000000000001
210
0
220
0
230
1
0
LINE
5
104
100
AcDbEntity
8
0
100
AcDbLine
10
73.025000000000006
20
33.152000000000001
30
0
11
73.025000000000006
21
4.3434000000000017
31
0
0
LINE
5
105
100
AcDbEntity
8
0
100
AcDbLine
10
73.025000000000006
20
-19.380199999999999
30
0
11
65.405000000000001
21
-19.380199999999999
31
0
0
ARC
5
106
100
AcDbEntity
8
0
100
AcDbCircle
10
2.54
20
33.147000000000006
30
0
40
2.5399999999999991
210
0
220
0
230
1
100
AcDbArc
50
90.112800000000007
51
180.11279999999914
0
LINE
5
107
100
AcDbEntity
8
0
100
AcDbLine
10
65.405000000000001
20
-19.380199999999999
30
0
11
65.405000000000001
21
4.3434000000000017
31
0
0
LINE
5
108
100
AcDbEntity
8
0
100
AcDbLine
10
73.025000000000006
20
-19.380199999999999
30
0
11
73.025000000000006
21
-22.859999999999999
31
0
0
CIRCLE
5
109
100
AcDbEntity
8
0
100
AcDbCircle
10
3.2766000000000006
20
12.6746
30
0
40
1.625
210
0
220
0
230
1
0
ARC
5
110
100
AcDbEntity
8
0
100
AcDbCircle
10
2.54
20
-22.859999999999999
30
0
40
2.54
210
0
220
0
230
1
100
AcDbArc
50
180.11279999999914
51
270.11279999999999
0
LINE
5
111
100
AcDbEntity
8
0
100
AcDbLine
10
65.405000000000001
20
4.3434000000000017
30
0
11
73.025000000000006
21
4.3434000000000017
31
0
0
ARC
5
112
100
AcDbEntity
8
0
100
AcDbCircle
10
70.485000000000014
20
-22.859999999999999
30
0
40
2.54
210
0
220
0
230
1
100
AcDbArc
50
-90
51
0
0
CIRCLE
5
113
100
AcDbEntity
8
0
100
AcDbCircle
10
3.2766000000000006
20
25.374600000000001
30
0
40
1.625
210
0
220
0
230
1
0
LINE
5
114
100
AcDbEntity
8
0
100
AcDbLine
10
2.5350000000000001
20
35.686999999999998
30
0
11
70.480000000000004
21
35.686999999999998
31
0
0
CIRCLE
5
115
100
AcDbEntity
8
0
100
AcDbCircle
10
5.1647999999999996
20
-9.8100000000000005
30
0
40
0.32500000000000001
210
0
220
0
230
1
0
LWPOLYLINE
5
116
100
AcDbEntity
8
0
100
AcDbPolyline
90
16
70
1
43
0.0
10
54.159999999999997
20
27.648403200000008
10
54.159999999999997
20
28.231596800000005
10
54.572403199999997
20
28.644000000000002
10
55.155596799999998
20
28.644000000000002
10
55.567999999999998
20
28.231596800000002
10
55.567999999999998
20
27.648403200000008
10
55.155596799999998
20
27.236000000000008
10
54.572403200000004
20
27.236000000000008
10
54.159999999999997
20
27.648403200000008
10
54.159999999999997
20
28.231596800000005
10
54.572403199999997
20
28.644000000000002
10
55.155596799999998
20
28.644000000000002
10
55.567999999999998
20
28.231596800000002
10
55.567999999999998
20
27.648403200000008
10
55.155596799999998
20
27.236000000000008
10
54.572403200000004
20
27.236000000000008
0
LWPOLYLINE
5
117
100
AcDbEntity
8
0
100
AcDbPolyline
90
2
70
1
43
0.0
10
56.70000000000001
20
28.231596800000002
10
57.11240320000001
20
28.644000000000002
0
LWPOLYLINE
5
118
100
AcDbEntity
8
0
100
AcDbPolyline
90
2
70
1
43
0.0
10
56.70000000000001
20
27.648403200000008
10
56.70000000000001
20
28.231596800000002
0
LWPOLYLINE
5
119
100
AcDbEntity
8
0
100
AcDbPolyline
90
2
70
1
43
0.0
10
57.11240320000001
20
27.236000000000008
10
56.70000000000001
20
27.648403200000008
0
LWPOLYLINE
5
120
100
AcDbEntity
8
0
100
AcDbPolyline
90
4
70
1
43
0.0
10
0.96079999999999999
20
-17.573999999999998
10
2.0688
20
-17.574000000000002
42
0.99999999999999989
10
2.0688
20
-16.465999999999998
10
0.96079999999999999
20
-16.466000000000001
42
0.99999999999999989
0
CIRCLE
5
121
100
AcDbEntity
8
0
100
AcDbCircle
10
2.54
20
-22.859999999999999
30
0
40
2
210
0
220
0
230
1
0
LWPOLYLINE
5
122
100
AcDbEntity
8
0
100
AcDbPolyline
90
2
70
1
43
0.0
10
5.1407999999999996
20
-7.8260000000000005
42
0.99999999999999989
10
5.1407999999999996
20
-8.9340000000000011
42
-0.99999999999999989
0
LWPOLYLINE
5
123
100
AcDbEntity
8
0
100
AcDbPolyline
90
4
70
1
43
0.0
10
0.96079999999999999
20
-7.8260000000000005
42
0.99999999999999989
10
0.96079999999999999
20
-8.9340000000000011
10
2.0688
20
-8.9340000000000011
42
0.99999999999999989
10
2.0688
20
-7.8260000000000005
0
LWPOLYLINE
5
124
100
AcDbEntity
8
0
100
AcDbPolyline
90
4
70
1
43
0.0
10
5.1407999999999996
20
-17.574000000000002
10
6.2488000000000001
20
-17.574000000000002
42
0.99999999999999989
10
6.2488000000000001
20
-16.465999999999998
10
5.1407999999999996
20
-16.465999999999998
42
0.99999999999999989
0
LWPOLYLINE
5
125
100
AcDbEntity
8
0
100
AcDbPolyline
90
4
70
1
43
0.0
10
0.96079999999999999
20
-8.9340000000000011
10
2.0688
20
-8.9340000000000011
42
0.99999999999999989
10
2.0688
20
-7.8260000000000005
10
0.96079999999999999
20
-7.8260000000000005
42
0.99999999999999989
0
LWPOLYLINE
5
126
100
AcDbEntity
8
0
100
AcDbPolyline
90
16
70
1
43
0.0
10
39.384579600000002
20
-22.859999999999999
10
40.01582040000001
20
-22.859999999999999
10
40.46220000000001
20
-23.306379600000003
10
40.462199999999996
20
-23.937620400000004
10
40.01582040000001
20
-24.384
10
39.384579600000002
20
-24.384
10
38.938200000000002
20
-23.9376204
10
38.938200000000002
20
-23.3063796
10
39.384579600000002
20
-22.859999999999999
10
40.01582040000001
20
-22.859999999999999
10
40.46220000000001
20
-23.306379600000003
10
40.462199999999996
20
-23.937620400000004
10
40.01582040000001
20
-24.384
10
39.384579600000002
20
-24.384
10
38.938200000000002
20
-23.9376204
10
38.938200000000002
20
-23.3063796
0
LWPOLYLINE
5
127
100
AcDbEntity
8
0
100
AcDbPolyline
90
16
70
1
43
0.0
10
36.844579600000003
20
-22.859999999999999
10
37.475820400000003
20
-22.859999999999999
10
37.922200000000004
20
-23.306379600000003
10
37.922200000000004
20
-23.9376204
10
37.475820400000003
20
-24.384
10
36.844579600000003
20
-24.384
10
36.398200000000003
20
-23.9376204
10
36.398200000000003
20
-23.3063796
10
36.844579600000003
20
-22.859999999999999
10
37.475820400000003
20
-22.859999999999999
10
37.922200000000004
20
-23.306379600000003
10
37.922200000000004
20
-23.9376204
10
37.475820400000003
20
-24.384
10
36.844579600000003
20
-24.384
10
36.398200000000003
20
-23.9376204
10
36.398200000000003
20
-23.3063796
0
LWPOLYLINE
5
128
100
AcDbEntity
8
0
100
AcDbPolyline
90
8
70
1
43
0.0
10
51.638200000000005
20
-23.3063796
10
52.084579600000005
20
-22.859999999999999
10
52.715820399999998
20
-22.859999999999999
10
53.162200000000006
20
-23.306379600000003
10
53.162200000000006
20
-23.937620400000004
10
52.715820399999998
20
-24.384
10
52.084579600000005
20
-24.384
10
51.638200000000005
20
-23.9376204
0
LWPOLYLINE
5
129
100
AcDbEntity
8
0
100
AcDbPolyline
90
2
70
1
43
0.0
10
2.2352000000000007
20
1.1496141600000005
10
2.2352000000000007
20
1.9491858400000006
0
LWPOLYLINE
5
130
100
AcDbEntity
8
0
100
AcDbPolyline
90
2
70
1
43
0.0
10
45.542200000000001
20
-23.937620400000004
10
45.095820399999994
20
-24.384
0
LWPOLYLINE
5
131
100
AcDbEntity
8
0
100
AcDbPolyline
90
8
70
1
43
0.0
10
49.544579599999999
20
-24.384
10
49.098199999999999
20
-23.9376204
10
49.098199999999999
20
-23.3063796
10
49.544579599999999
20
-22.859999999999999
10
50.175820399999999
20
-22.859999999999999
10
50.622199999999999
20
-23.306379600000003
10
50.622199999999999
20
-23.937620400000004
10
50.175820399999999
20
-24.384
0
LWPOLYLINE
5
132
100
AcDbEntity
8
0
100
AcDbPolyline
90
16
70
1
43
0.0
10
55.702199999999998
20
-23.937620400000004
10
55.255820399999998
20
-24.384
10
54.624579600000004
20
-24.384
10
54.178199999999997
20
-23.9376204
10
54.178199999999997
20
-23.3063796
10
54.624579600000004
20
-22.859999999999999
10
55.255820399999998
20
-22.859999999999999
10
55.702199999999998
20
-23.306379600000003
10
55.702199999999998
20
-23.937620400000004
10
55.255820399999998
20
-24.384
10
54.624579600000004
20
-24.384
10
54.178199999999997
20
-23.9376204
10
54.178199999999997
20
-23.3063796
10
54.624579600000004
20
-22.859999999999999
10
55.255820399999998
20
-22.859999999999999
10
55.702199999999998
20
-23.306379600000003
0
LWPOLYLINE
5
133
100
AcDbEntity
8
0
100
AcDbPolyline
90
8
70
1
43
0.0
10
56.718200000000003
20
-23.306379600000003
10
57.164579600000003
20
-22.859999999999999
10
57.795820400000004
20
-22.859999999999999
10
58.242200000000004
20
-23.306379600000003
10
58.242200000000004
20
-23.937620400000004
10
57.795820400000004
20
-24.384
10
57.164579600000003
20
-24.384
10
56.718200000000003
20
-23.9376204
0
LWPOLYLINE
5
134
100
AcDbEntity
8
0
100
AcDbPolyline
90
8
70
1
43
0.0
10
52.715820399999998
20
-22.859999999999999
10
53.162200000000006
20
-23.306379600000003
10
53.162200000000006
20
-23.937620400000004
10
52.715820399999998
20
-24.384
10
52.084579600000005
20
-24.384
10
51.638200000000005
20
-23.9376204
10
51.638200000000005
20
-23.3063796
10
52.084579600000005
20
-22.859999999999999
0
LWPOLYLINE
5
135
100
AcDbEntity
8
0
100
AcDbPolyline
90
8
70
1
43
0.0
10
57.795820400000004
20
-24.384
10
57.164579600000003
20
-24.384
10
56.718200000000003
20
-23.9376204
10
56.718200000000003
20
-23.306379600000003
10
57.164579600000003
20
-22.859999999999999
10
57.795820400000004
20
-22.859999999999999
10
58.242200000000004
20
-23.306379600000003
10
58.242200000000004
20
-23.937620400000004
0
LWPOLYLINE
5
136
100
AcDbEntity
8
0
100
AcDbPolyline
90
16
70
1
43
0.0
10
47.6358204
20
-24.384
10
47.004579600000007
20
-24.384
10
46.558199999999999
20
-23.9376204
10
46.558199999999999
20
-23.3063796
10
47.004579600000007
20
-22.859999999999999
10
47.6358204
20
-22.859999999999999
10
48.0822
20
-23.306379600000003
10
48.0822
20
-23.937620400000004
10
47.6358204
20
-24.384
10
47.004579600000007
20
-24.384
10
46.558199999999999
20
-23.9376204
10
46.558199999999999
20
-23.3063796
10
47.004579600000007
20
-22.859999999999999
10
47.6358204
20
-22.859999999999999
10
48.0822
20
-23.306379600000003
10
48.0822
20
-23.937620400000004
0
LWPOLYLINE
5
137
100
AcDbEntity
8
0
100
AcDbPolyline
90
2
70
1
43
0.0
10
63.322200000000002
20
-23.9376204
10
62.875820400000002
20
-24.384
0
LWPOLYLINE
5
138
100
AcDbEntity
8
0
100
AcDbPolyline
90
8
70
1
43
0.0
10
41.478200000000001
20
-23.3063796
10
41.924579600000001
20
-22.859999999999999
10
42.555820400000002
20
-22.859999999999999
10
43.002200000000002
20
-23.306379600000003
10
43.002200000000002
20
-23.9376204
10
42.555820400000002
20
-24.384
10
41.924579600000001
20
-24.384
10
41.478200000000001
20
-23.9376204
0
LWPOLYLINE
5
139
100
AcDbEntity
8
0
100
AcDbPolyline
90
6
70
1
43
0.0
10
62.244579600000009
20
-22.859999999999999
10
62.875820400000002
20
-22.859999999999999
10
63.322200000000002
20
-23.306379600000003
10
63.322200000000002
20
-23.9376204
10
63.322200000000002
20
-23.306379600000003
10
62.875820400000002
20
-22.859999999999999
0
LWPOLYLINE
5
140
100
AcDbEntity
8
0
100
AcDbPolyline
90
8
70
1
43
0.0
10
49.098199999999999
20
-23.3063796
10
49.544579599999999
20
-22.859999999999999
10
50.175820399999999
20
-22.859999999999999
10
50.622199999999999
20
-23.306379600000003
10
50.622199999999999
20
-23.937620400000004
10
50.175820399999999
20
-24.384
10
49.544579599999999
20
-24.384
10
49.098199999999999
20
-23.9376204
0
LWPOLYLINE
5
141
100
AcDbEntity
8
0
100
AcDbPolyline
90
8
70
1
43
0.0
10
41.924579600000001
20
-22.859999999999999
10
42.555820400000002
20
-22.859999999999999
10
43.002200000000002
20
-23.306379600000003
10
43.002200000000002
20
-23.9376204
10
42.555820400000002
20
-24.384
10
41.924579600000001
20
-24.384
10
41.478200000000001
20
-23.9376204
10
41.478200000000001
20
-23.3063796
0
LWPOLYLINE
5
142
100
AcDbEntity
8
0
100
AcDbPolyline
90
2
70
1
43
0.0
10
44.0182
20
-23.9376204
10
44.0182
20
-23.3063796
0
CIRCLE
5
143
100
AcDbEntity
8
0
100
AcDbCircle
10
70.485000000000014
20
-22.859999999999999
30
0
40
2
210
0
220
0
230
1
0
LWPOLYLINE
5
144
100
AcDbEntity
8
0
100
AcDbPolyline
90
8
70
1
43
0.0
10
60.78220000000001
20
-23.937620400000004
10
60.335820400000003
20
-24.384
10
59.70457960000001
20
-24.384
10
59.258200000000009
20
-23.9376204
10
59.258200000000009
20
-23.3063796
10
59.70457960000001
20
-22.859999999999999
10
60.335820400000003
20
-22.859999999999999
10
60.78220000000001
20
-23.306379600000003
0
LWPOLYLINE
5
145
100
AcDbEntity
8
0
100
AcDbPolyline
90
2
70
1
43
0.0
10
61.798200000000001
20
-23.3063796
10
62.244579600000009
20
-22.859999999999999
0
LWPOLYLINE
5
146
100
AcDbEntity
8
0
100
AcDbPolyline
90
8
70
1
43
0.0
10
59.258200000000009
20
-23.9376204
10
59.258200000000009
20
-23.3063796
10
59.70457960000001
20
-22.859999999999999
10
60.335820400000003
20
-22.859999999999999
10
60.78220000000001
20
-23.306379600000003
10
60.78220000000001
20
-23.937620400000004
10
60.335820400000003
20
-24.384
10
59.70457960000001
20
-24.384
0
LWPOLYLINE
5
147
100
AcDbEntity
8
0
100
AcDbPolyline
90
6
70
1
43
0.0
10
62.875820400000002
20
-24.384
10
62.244579600000009
20
-24.384
10
61.798200000000001
20
-23.9376204
10
61.798200000000001
20
-23.3063796
10
61.798200000000001
20
-23.9376204
10
62.244579600000009
20
-24.384
0
CIRCLE
5
148
100
AcDbEntity
8
0
100
AcDbCircle
10
70.485000000000014
20
-22.859999999999999
30
0
40
2
210
0
220
0
230
1
0
LWPOLYLINE
5
149
100
AcDbEntity
8
0
100
AcDbPolyline
90
2
70
1
43
0.0
10
34.935820400000004
20
-22.859999999999999
10
35.382199999999997
20
-23.306379600000003
0
LWPOLYLINE
5
150
100
AcDbEntity
8
0
100
AcDbPolyline
90
2
70
1
43
0.0
10
34.304579599999997
20
-22.859999999999999
10
34.935820400000004
20
-22.859999999999999
0
LWPOLYLINE
5
151
100
AcDbEntity
8
0
100
AcDbPolyline
90
8
70
1
43
0.0
10
65.862200000000001
20
-23.306379600000003
10
65.862200000000001
20
-23.937620400000004
10
65.415820400000001
20
-24.384
10
64.784579600000015
20
-24.384
10
64.338200000000001
20
-23.9376204
10
64.338200000000001
20
-23.306379600000003
10
64.784579600000015
20
-22.859999999999999
10
65.415820400000001
20
-22.859999999999999
0
LWPOLYLINE
5
152
100
AcDbEntity
8
0
100
AcDbPolyline
90
6
70
1
43
0.0
10
34.304579599999997
20
-24.384
10
33.858199999999997
20
-23.9376204
10
33.858199999999997
20
-23.306379600000003
10
34.304579599999997
20
-22.859999999999999
10
33.858199999999997
20
-23.306379600000003
10
33.858199999999997
20
-23.9376204
0
LWPOLYLINE
5
153
100
AcDbEntity
8
0
100
AcDbPolyline
90
8
70
1
43
0.0
10
32.395820399999998
20
-24.384
10
31.764579600000001
20
-24.384
10
31.318199999999997
20
-23.9376204
10
31.318199999999997
20
-23.3063796
10
31.764579600000001
20
-22.859999999999999
10
32.395820400000005
20
-22.859999999999999
10
32.842199999999998
20
-23.306379600000003
10
32.842199999999998
20
-23.937620400000004
0
LWPOLYLINE
5
154
100
AcDbEntity
8
0
100
AcDbPolyline
90
8
70
1
43
0.0
10
32.395820400000005
20
-22.859999999999999
10
32.842199999999998
20
-23.306379600000003
10
32.842199999999998
20
-23.937620400000004
10
32.395820399999998
20
-24.384
10
31.764579600000001
20
-24.384
10
31.318199999999997
20
-23.9376204
10
31.318199999999997
20
-23.3063796
10
31.764579600000001
20
-22.859999999999999
0
LWPOLYLINE
5
155
100
AcDbEntity
8
0
100
AcDbPolyline
90
8
70
1
43
0.0
10
2.8006141600000007
20
-0.025400000000000075
10
3.6001858400000009
20
-0.025400000000000145
10
4.1656000000000004
20
-0.59081416000000009
10
4.1656000000000004
20
-1.3903858400000002
10
3.6001858400000004
20
-1.9558
10
2.8006141600000003
20
-1.9558
10
2.2352000000000003
20
-1.3903858400000002
10
2.2352000000000007
20
-0.59081415999999987
0
CIRCLE
5
156
100
AcDbEntity
8
0
100
AcDbCircle
10
5.8166000000000011
20
15.454600000000001
30
0
40
0.70400000000000007
210
0
220
0
230
1
0
LWPOLYLINE
5
157
100
AcDbEntity
8
0
100
AcDbPolyline
90
2
70
1
43
0.0
10
35.382199999999997
20
-23.9376204
10
34.935820399999997
20
-24.384
0
LWPOLYLINE
5
158
100
AcDbEntity
8
0
100
AcDbPolyline
90
8
70
1
43
0.0
10
64.338200000000001
20
-23.306379600000003
10
64.784579600000015
20
-22.859999999999999
10
65.415820400000001
20
-22.859999999999999
10
65.862200000000001
20
-23.306379600000003
10
65.862200000000001
20
-23.937620400000004
10
65.415820400000001
20
-24.384
10
64.784579600000015
20
-24.384
10
64.338200000000001
20
-23.9376204
0
LWPOLYLINE
5
159
100
AcDbEntity
8
0
100
AcDbPolyline
90
2
70
1
43
0.0
10
35.382199999999997
20
-23.306379600000003
10
35.382199999999997
20
-23.9376204
0
LWPOLYLINE
5
160
100
AcDbEntity
8
0
100
AcDbPolyline
90
2
70
1
43
0.0
10
34.935820399999997
20
-24.384
10
34.304579599999997
20
-24.384
0
LWPOLYLINE
5
161
100
AcDbEntity
8
0
100
AcDbPolyline
90
2
70
1
43
0.0
10
26.684579599999999
20
-24.384
10
26.238200000000003
20
-23.9376204
0
LWPOLYLINE
5
162
100
AcDbEntity
8
0
100
AcDbPolyline
90
2
70
1
43
0.0
10
32.707999999999998
20
27.648403200000004
10
32.295596799999998
20
27.236000000000008
0
LWPOLYLINE
5
163
100
AcDbEntity
8
0
100
AcDbPolyline
90
16
70
1
43
0.0
10
28.778199999999998
20
-23.9376204
10
28.778199999999998
20
-23.306379600000003
10
29.224579599999998
20
-22.859999999999999
10
29.855820399999999
20
-22.859999999999999
10
30.302199999999999
20
-23.306379600000003
10
30.302199999999999
20
-23.937620400000004
10
29.855820399999999
20
-24.384
10
29.224579599999995
20
-24.384
10
28.778199999999998
20
-23.9376204
10
28.778199999999998
20
-23.306379600000003
10
29.224579599999998
20
-22.859999999999999
10
29.855820399999999
20
-22.859999999999999
10
30.302199999999999
20
-23.306379600000003
10
30.302199999999999
20
-23.937620400000004
10
29.855820399999999
20
-24.384
10
29.224579599999995
20
-24.384
0
LWPOLYLINE
5
164
100
AcDbEntity
8
0
100
AcDbPolyline
90
8
70
1
43
0.0
10
31.300000000000004
20
28.231596800000005
10
31.712403200000004
20
28.644000000000002
10
32.295596799999998
20
28.644000000000002
10
32.707999999999998
20
28.231596800000002
10
32.707999999999998
20
27.648403200000004
10
32.707999999999998
20
28.231596800000002
10
32.295596799999998
20
28.644000000000002
10
31.712403200000004
20
28.644000000000002
0
LWPOLYLINE
5
165
100
AcDbEntity
8
0
100
AcDbPolyline
90
8
70
1
43
0.0
10
3.6001858400000009
20
-0.025400000000000145
10
4.1656000000000004
20
-0.59081416000000009
10
4.1656000000000004
20
-1.3903858400000002
10
3.6001858400000004
20
-1.9558
10
2.8006141600000003
20
-1.9558
10
2.2352000000000003
20
-1.3903858400000002
10
2.2352000000000007
20
-0.59081415999999987
10
2.8006141600000007
20
-0.025400000000000075
0
CIRCLE
5
166
100
AcDbEntity
8
0
100
AcDbCircle
10
12.406600000000001
20
12.1646
30
0
40
0.70400000000000007
210
0
220
0
230
1
0
CIRCLE
5
167
100
AcDbEntity
8
0
100
AcDbCircle
10
12.406600000000001
20
12.1646
30
0
40
0.70400000000000007
210
0
220
0
230
1
0
LWPOLYLINE
5
168
100
AcDbEntity
8
0
100
AcDbPolyline
90
6
70
1
43
0.0
10
4.1656000000000004
20
1.1496141600000001
10
3.6001858400000004
20
0.58420000000000027
10
2.8006141600000003
20
0.58420000000000039
10
2.2352000000000007
20
1.1496141600000005
10
2.8006141600000003
20
0.58420000000000039
10
3.6001858400000004
20
0.58420000000000027
0
CIRCLE
5
169
100
AcDbEntity
8
0
100
AcDbCircle
10
5.8166000000000011
20
15.454600000000001
30
0
40
0.70400000000000007
210
0
220
0
230
1
0
LWPOLYLINE
5
170
100
AcDbEntity
8
0
100
AcDbPolyline
90
2
70
1
43
0.0
10
30.167999999999999
20
28.231596800000002
10
30.167999999999999
20
27.648403200000004
0
LWPOLYLINE
5
171
100
AcDbEntity
8
0
100
AcDbPolyline
90
8
70
1
43
0.0
10
27.3158204
20
-22.859999999999999
10
27.762200000000004
20
-23.306379600000003
10
27.762200000000004
20
-23.937620400000004
10
27.3158204
20
-24.384
10
26.684579599999999
20
-24.384
10
27.3158204
20
-24.384
10
27.762200000000004
20
-23.937620400000004
10
27.762200000000004
20
-23.306379600000003
0
LWPOLYLINE
5
172
100
AcDbEntity
8
0
100
AcDbPolyline
90
2
70
1
43
0.0
10
29.172403200000005
20
27.236000000000008
10
28.760000000000005
20
27.648403200000008
0
LWPOLYLINE
5
173
100
AcDbEntity
8
0
100
AcDbPolyline
90
2
70
1
43
0.0
10
29.172403200000005
20
28.644000000000002
10
29.755596800000003
20
28.644000000000002
0
CIRCLE
5
174
100
AcDbEntity
8
0
100
AcDbCircle
10
12.406600000000001
20
14.454599999999999
30
0
40
0.70400000000000007
210
0
220
0
230
1
0
LWPOLYLINE
5
175
100
AcDbEntity
8
0
100
AcDbPolyline
90
2
70
1
43
0.0
10
29.755596799999999
20
27.236000000000008
10
29.172403200000005
20
27.236000000000008
0
LWPOLYLINE
5
176
100
AcDbEntity
8
0
100
AcDbPolyline
90
2
70
1
43
0.0
10
31.712403200000004
20
27.236000000000008
10
31.300000000000004
20
27.648403200000008
0
CIRCLE
5
177
100
AcDbEntity
8
0
100
AcDbCircle
10
12.406600000000001
20
14.454599999999999
30
0
40
0.70400000000000007
210
0
220
0
230
1
0
LWPOLYLINE
5
178
100
AcDbEntity
8
0
100
AcDbPolyline
90
2
70
1
43
0.0
10
44.0182
20
-23.3063796
10
44.4645796
20
-22.859999999999999
0
LWPOLYLINE
5
179
100
AcDbEntity
8
0
100
AcDbPolyline
90
2
70
1
43
0.0
10
62.775596800000002
20
27.236000000000008
10
62.192403200000001
20
27.236000000000008
0
LWPOLYLINE
5
180
100
AcDbEntity
8
0
100
AcDbPolyline
90
2
70
1
43
0.0
10
45.542200000000001
20
-23.306379600000003
10
45.542200000000001
20
-23.937620400000004
0
LWPOLYLINE
5
181
100
AcDbEntity
8
0
100
AcDbPolyline
90
6
70
1
43
0.0
10
62.775596800000002
20
28.644000000000002
10
63.188000000000002
20
28.231596800000002
10
63.188000000000002
20
27.648403200000004
10
62.775596800000002
20
27.236000000000008
10
63.188000000000002
20
27.648403200000004
10
63.188000000000002
20
28.231596800000002
0
LWPOLYLINE
5
182
100
AcDbEntity
8
0
100
AcDbPolyline
90
2
70
1
43
0.0
10
45.095820399999994
20
-22.859999999999999
10
45.542200000000001
20
-23.306379600000003
0
LWPOLYLINE
5
183
100
AcDbEntity
8
0
100
AcDbPolyline
90
2
70
1
43
0.0
10
44.4645796
20
-24.384
10
44.0182
20
-23.9376204
0
LWPOLYLINE
5
184
100
AcDbEntity
8
0
100
AcDbPolyline
90
2
70
1
43
0.0
10
45.095820399999994
20
-24.384
10
44.4645796
20
-24.384
0
LWPOLYLINE
5
185
100
AcDbEntity
8
0
100
AcDbPolyline
90
8
70
1
43
0.0
10
62.192403200000001
20
27.236000000000008
10
61.780000000000001
20
27.648403200000008
10
61.780000000000001
20
28.231596800000005
10
62.192403200000001
20
28.644000000000002
10
62.775596800000002
20
28.644000000000002
10
62.192403200000001
20
28.644000000000002
10
61.780000000000001
20
28.231596800000005
10
61.780000000000001
20
27.648403200000008
0
CIRCLE
5
186
100
AcDbEntity
8
0
100
AcDbCircle
10
70.485000000000014
20
33.147000000000006
30
0
40
2
210
0
220
0
230
1
0
CIRCLE
5
187
100
AcDbEntity
8
0
100
AcDbCircle
10
70.485000000000014
20
33.147000000000006
30
0
40
2
210
0
220
0
230
1
0
LWPOLYLINE
5
188
100
AcDbEntity
8
0
100
AcDbPolyline
90
2
70
1
43
0.0
10
44.4645796
20
-22.859999999999999
10
45.095820399999994
20
-22.859999999999999
0
LWPOLYLINE
5
189
100
AcDbEntity
8
0
100
AcDbPolyline
90
2
70
1
43
0.0
10
57.695596800000011
20
27.236000000000008
10
57.11240320000001
20
27.236000000000008
0
LWPOLYLINE
5
190
100
AcDbEntity
8
0
100
AcDbPolyline
90
8
70
1
43
0.0
10
60.23559680000001
20
28.644000000000002
10
60.64800000000001
20
28.231596800000002
10
60.64800000000001
20
27.648403200000004
10
60.23559680000001
20
27.236000000000008
10
59.652403200000002
20
27.236000000000008
10
59.240000000000002
20
27.648403200000008
10
59.240000000000002
20
28.231596800000005
10
59.652403200000002
20
28.644000000000002
0
LWPOLYLINE
5
191
100
AcDbEntity
8
0
100
AcDbPolyline
90
8
70
1
43
0.0
10
60.64800000000001
20
28.231596800000002
10
60.64800000000001
20
27.648403200000004
10
60.23559680000001
20
27.236000000000008
10
59.652403200000002
20
27.236000000000008
10
59.240000000000002
20
27.648403200000008
10
59.240000000000002
20
28.231596800000005
10
59.652403200000002
20
28.644000000000002
10
60.23559680000001
20
28.644000000000002
0
LWPOLYLINE
5
192
100
AcDbEntity
8
0
100
AcDbPolyline
90
6
70
1
43
0.0
10
57.695596800000011
20
28.644000000000002
10
58.108000000000011
20
28.231596800000002
10
58.108000000000011
20
27.648403200000004
10
57.695596800000011
20
27.236000000000008
10
58.108000000000011
20
27.648403200000004
10
58.108000000000011
20
28.231596800000002
0
LWPOLYLINE
5
193
100
AcDbEntity
8
0
100
AcDbPolyline
90
2
70
1
43
0.0
10
57.11240320000001
20
28.644000000000002
10
57.695596800000011
20
28.644000000000002
0
LWPOLYLINE
5
194
100
AcDbEntity
8
0
100
AcDbPolyline
90
2
70
1
43
0.0
10
4.1656000000000004
20
1.9491858400000002
10
4.1656000000000004
20
1.1496141600000001
0
LWPOLYLINE
5
195
100
AcDbEntity
8
0
100
AcDbPolyline
90
4
70
1
43
0.0
10
2.8006141600000007
20
2.5146000000000002
10
3.6001858400000009
20
2.5146000000000002
10
4.1656000000000004
20
1.9491858400000002
10
3.6001858400000009
20
2.5146000000000002
0
CIRCLE
5
196
100
AcDbEntity
8
0
100
AcDbCircle
10
5.8166000000000011
20
17.494599999999998
30
0
40
0.70400000000000007
210
0
220
0
230
1
0
CIRCLE
5
197
100
AcDbEntity
8
0
100
AcDbCircle
10
2.54
20
33.147000000000006
30
0
40
2
210
0
220
0
230
1
0
LWPOLYLINE
5
198
100
AcDbEntity
8
0
100
AcDbPolyline
90
8
70
1
43
0.0
10
3.6001858400000009
20
5.0546000000000006
10
4.1656000000000004
20
4.4891858400000002
10
4.1656000000000004
20
3.6896141600000005
10
3.6001858400000004
20
3.1242000000000001
10
2.8006141600000003
20
3.124200000000001
10
2.2352000000000007
20
3.689614160000001
10
2.2352000000000007
20
4.4891858400000011
10
2.8006141600000007
20
5.0546000000000015
0
CIRCLE
5
199
100
AcDbEntity
8
0
100
AcDbCircle
10
5.8166000000000011
20
19.534600000000001
30
0
40
0.70400000000000007
210
0
220
0
230
1
0
CIRCLE
5
200
100
AcDbEntity
8
0
100
AcDbCircle
10
12.406600000000001
20
25.884599999999999
30
0
40
0.70400000000000007
210
0
220
0
230
1
0
CIRCLE
5
201
100
AcDbEntity
8
0
100
AcDbCircle
10
2.54
20
-22.859999999999999
30
0
40
2
210
0
220
0
230
1
0
LWPOLYLINE
5
202
100
AcDbEntity
8
0
100
AcDbPolyline
90
8
70
1
43
0.0
10
3.6001858400000004
20
3.1242000000000001
10
2.8006141600000003
20
3.124200000000001
10
2.2352000000000007
20
3.689614160000001
10
2.2352000000000007
20
4.4891858400000011
10
2.8006141600000007
20
5.0546000000000015
10
3.6001858400000009
20
5.0546000000000006
10
4.1656000000000004
20
4.4891858400000002
10
4.1656000000000004
20
3.6896141600000005
0
LWPOLYLINE
5
203
100
AcDbEntity
8
0
100
AcDbPolyline
90
2
70
1
43
0.0
10
26.238200000000003
20
-23.3063796
10
26.684579600000006
20
-22.859999999999999
0
LWPOLYLINE
5
204
100
AcDbEntity
8
0
100
AcDbPolyline
90
4
70
1
43
0.0
10
6.2488000000000001
20
-17.574000000000002
42
0.99999999999999989
10
6.2488000000000001
20
-16.465999999999998
10
5.1407999999999996
20
-16.465999999999998
42
0.99999999999999989
10
5.1407999999999996
20
-17.574000000000002
0
CIRCLE
5
205
100
AcDbEntity
8
0
100
AcDbCircle
10
6.8366000000000007
20
27.154600000000002
30
0
40
1.3500000000000001
210
0
220
0
230
1
0
LWPOLYLINE
5
206
100
AcDbEntity
8
0
100
AcDbPolyline
90
4
70
1
43
0.0
10
0.96079999999999999
20
-16.466000000000001
42
0.99999999999999989
10
0.96079999999999999
20
-17.573999999999998
10
2.0688
20
-17.574000000000002
42
0.99999999999999989
10
2.0688
20
-16.465999999999998
0
CIRCLE
5
207
100
AcDbEntity
8
0
100
AcDbCircle
10
7.5966000000000005
20
20.554600000000001
30
0
40
0.70400000000000007
210
0
220
0
230
1
0
LWPOLYLINE
5
208
100
AcDbEntity
8
0
100
AcDbPolyline
90
2
70
1
43
0.0
10
6.2488000000000001
20
-8.9340000000000011
42
0.99999999999999989
10
6.2488000000000001
20
-7.8260000000000005
42
-0.99999999999999989
0
CIRCLE
5
209
100
AcDbEntity
8
0
100
AcDbCircle
10
5.8166000000000011
20
21.5746
30
0
40
0.70400000000000007
210
0
220
0
230
1
0
CIRCLE
5
210
100
AcDbEntity
8
0
100
AcDbCircle
10
12.406600000000001
20
23.5946
30
0
40
0.70400000000000007
210
0
220
0
230
1
0
LWPOLYLINE
5
211
100
AcDbEntity
8
0
100
AcDbPolyline
90
2
70
1
43
0.0
10
2.2352000000000007
20
1.9491858400000006
10
2.8006141600000007
20
2.5146000000000002
0
CIRCLE
5
212
100
AcDbEntity
8
0
100
AcDbCircle
10
6.8366000000000007
20
27.154600000000002
30
0
40
1.3500000000000001
210
0
220
0
230
1
0
LWPOLYLINE
5
213
100
AcDbEntity
8
0
100
AcDbPolyline
90
2
70
1
43
0.0
10
26.238200000000003
20
-23.9376204
10
26.238200000000003
20
-23.3063796
0
CIRCLE
5
214
100
AcDbEntity
8
0
100
AcDbCircle
10
7.5966000000000005
20
18.514600000000002
30
0
40
0.70400000000000007
210
0
220
0
230
1
0
CIRCLE
5
215
100
AcDbEntity
8
0
100
AcDbCircle
10
5.8166000000000011
20
17.494599999999998
30
0
40
0.70400000000000007
210
0
220
0
230
1
0
CIRCLE
5
216
100
AcDbEntity
8
0
100
AcDbCircle
10
6.8366000000000007
20
10.894600000000001
30
0
40
1.3500000000000001
210
0
220
0
230
1
0
CIRCLE
5
217
100
AcDbEntity
8
0
100
AcDbCircle
10
12.406600000000001
20
23.5946
30
0
40
0.70400000000000007
210
0
220
0
230
1
0
LWPOLYLINE
5
218
100
AcDbEntity
8
0
100
AcDbPolyline
90
2
70
1
43
0.0
10
6.2488000000000001
20
-7.8260000000000005
10
5.1407999999999996
20
-7.8260000000000005
0
LWPOLYLINE
5
219
100
AcDbEntity
8
0
100
AcDbPolyline
90
2
70
1
43
0.0
10
5.1407999999999996
20
-8.9340000000000011
10
6.2488000000000001
20
-8.9340000000000011
0
CIRCLE
5
220
100
AcDbEntity
8
0
100
AcDbCircle
10
6.8366000000000007
20
10.894600000000001
30
0
40
1.3500000000000001
210
0
220
0
230
1
0
CIRCLE
5
221
100
AcDbEntity
8
0
100
AcDbCircle
10
7.5966000000000005
20
16.474599999999999
30
0
40
0.70400000000000007
210
0
220
0
230
1
0
CIRCLE
5
222
100
AcDbEntity
8
0
100
AcDbCircle
10
7.5966000000000005
20
18.514600000000002
30
0
40
0.70400000000000007
210
0
220
0
230
1
0
CIRCLE
5
223
100
AcDbEntity
8
0
100
AcDbCircle
10
5.8166000000000011
20
19.534600000000001
30
0
40
0.70400000000000007
210
0
220
0
230
1
0
CIRCLE
5
224
100
AcDbEntity
8
0
100
AcDbCircle
10
7.5966000000000005
20
20.554600000000001
30
0
40
0.70400000000000007
210
0
220
0
230
1
0
CIRCLE
5
225
100
AcDbEntity
8
0
100
AcDbCircle
10
7.5966000000000005
20
22.594600000000003
30
0
40
0.70400000000000007
210
0
220
0
230
1
0
CIRCLE
5
226
100
AcDbEntity
8
0
100
AcDbCircle
10
2.54
20
33.147000000000006
30
0
40
2
210
0
220
0
230
1
0
CIRCLE
5
227
100
AcDbEntity
8
0
100
AcDbCircle
10
5.8166000000000011
20
21.5746
30
0
40
0.70400000000000007
210
0
220
0
230
1
0
CIRCLE
5
228
100
AcDbEntity
8
0
100
AcDbCircle
10
7.5966000000000005
20
16.474599999999999
30
0
40
0.70400000000000007
210
0
220
0
230
1
0
CIRCLE
5
229
100
AcDbEntity
8
0
100
AcDbCircle
10
7.5966000000000005
20
22.594600000000003
30
0
40
0.70400000000000007
210
0
220
0
230
1
0
LWPOLYLINE
5
230
100
AcDbEntity
8
0
100
AcDbPolyline
90
2
70
1
43
0.0
10
26.684579600000006
20
-22.859999999999999
10
27.3158204
20
-22.859999999999999
0
LWPOLYLINE
5
231
100
AcDbEntity
8
0
100
AcDbPolyline
90
2
70
1
43
0.0
10
30.167999999999999
20
27.648403200000004
10
29.755596799999999
20
27.236000000000008
0
LWPOLYLINE
5
232
100
AcDbEntity
8
0
100
AcDbPolyline
90
2
70
1
43
0.0
10
28.760000000000005
20
28.231596800000002
10
29.172403200000005
20
28.644000000000002
0
LWPOLYLINE
5
233
100
AcDbEntity
8
0
100
AcDbPolyline
90
2
70
1
43
0.0
10
31.300000000000004
20
27.648403200000008
10
31.300000000000004
20
28.231596800000005
0
CIRCLE
5
234
100
AcDbEntity
8
0
100
AcDbCircle
10
12.406600000000001
20
25.884599999999999
30
0
40
0.70400000000000007
210
0
220
0
230
1
0
LWPOLYLINE
5
235
100
AcDbEntity
8
0
100
AcDbPolyline
90
2
70
1
43
0.0
10
28.760000000000005
20
27.648403200000008
10
28.760000000000005
20
28.231596800000002
0
LWPOLYLINE
5
236
100
AcDbEntity
8
0
100
AcDbPolyline
90
2
70
1
43
0.0
10
29.755596800000003
20
28.644000000000002
10
30.167999999999999
20
28.231596800000002
0
LWPOLYLINE
5
237
100
AcDbEntity
8
0
100
AcDbPolyline
90
2
70
1
43
0.0
10
32.295596799999998
20
27.236000000000008
10
31.712403200000004
20
27.236000000000008
0
LWPOLYLINE
5
238
100
AcDbEntity
8
0
100
AcDbPolyline
90
4
70
1
43
0.0
10
70.477999999999994
20
22.566800000000001
10
70.477999999999994
20
11.316800000000001
10
64.477999999999994
20
11.316800000000001
10
64.477999999999994
20
22.566800000000001
0
LWPOLYLINE
5
239
100
AcDbEntity
8
0
100
AcDbPolyline
90
4
70
1
43
0.0
10
63.458600000000004
20
16.189800000000002
10
61.458599999999997
20
16.189800000000002
10
61.458599999999997
20
17.439800000000002
10
63.458600000000004
20
17.439800000000002
0
LWPOLYLINE
5
240
100
AcDbEntity
8
0
100
AcDbPolyline
90
3
70
1
43
0.0
10
69.328000000000003
20
17.341799999999999
10
68.528000000000006
20
16.941800000000001
10
69.328000000000003
20
16.541799999999999
0
LINE
5
241
100
AcDbEntity
8
0
100
AcDbLine
10
62.808600000000006
20
17.439800000000002
30
0
11
63.458600000000004
21
16.7898
31
0
0
LINE
5
242
100
AcDbEntity
8
0
100
AcDbLine
10
69.927999999999997
20
16.941800000000001
30
0
11
68.528000000000006
21
16.941800000000001
31
0
0
LWPOLYLINE
5
243
100
AcDbEntity
8
0
100
AcDbPolyline
90
4
70
1
43
0.0
10
0.060400000000000002
20
-2.5005999999999999
10
0.060400000000000002
20
5.599400000000001
10
6.3304000000000009
20
5.5994000000000002
10
6.3304000000000009
20
-2.5006000000000004
0
LWPOLYLINE
5
244
100
AcDbEntity
8
0
100
AcDbPolyline
90
10
70
1
43
0.0
10
26.542999999999999
20
-0.60960000000000003
10
26.542999999999999
20
3.7084000000000006
42
0.41421356237309503
10
26.161999999999999
20
4.0894000000000013
10
23.0124
20
4.0894000000000013
42
0.41421356237309503
10
22.631399999999999
20
3.7084000000000006
10
22.631399999999999
20
-0.60960000000000014
42
0.41421356237309498
10
23.0124
20
-0.99060000000000015
10
24.079200000000004
20
-0.99060000000000015
10
25.095200000000002
20
-0.99060000000000015
10
26.161999999999999
20
-0.99060000000000015
42
0.41421356237309503
0
CIRCLE
5
245
100
AcDbEntity
8
0
100
AcDbCircle
10
63.758600000000001
20
17.614799999999999
30
0
40
0.10000000000000002
210
0
220
0
230
1
0
LINE
5
246
100
AcDbEntity
8
0
100
AcDbLine
10
72.031199999999998
20
-16.5014
30
0
11
72.031199999999998
21
1.4985999999999999
31
0
0
LWPOLYLINE
5
247
100
AcDbEntity
8
0
100
AcDbPolyline
90
4
70
1
43
0.0
10
63.753999999999998
20
22.289999999999999
10
63.753999999999998
20
19.050000000000004
10
28.193999999999999
20
19.050000000000004
10
28.193999999999999
20
22.289999999999999
0
LINE
5
248
100
AcDbEntity
8
0
100
AcDbLine
10
26.187400000000004
20
-0.99060000000000015
30
0
11
26.187400000000004
21
4.0894000000000013
31
0
0
LWPOLYLINE
5
249
100
AcDbEntity
8
0
100
AcDbPolyline
90
4
70
1
43
0.0
10
28.193999999999999
20
35.560000000000002
10
63.753999999999998
20
35.560000000000002
10
63.753999999999998
20
23.890000000000001
10
28.193999999999999
20
23.890000000000001
0
CIRCLE
5
250
100
AcDbEntity
8
0
100
AcDbCircle
10
35.5092
20
-0.076200000000000004
30
0
40
0.45720000000000005
210
0
220
0
230
1
0
LWPOLYLINE
5
251
100
AcDbEntity
8
0
100
AcDbPolyline
90
4
70
1
43
0.0
10
32.007199999999997
20
4.0640000000000001
10
36.572800000000001
20
4.0640000000000001
10
36.572800000000001
20
-0.96519999999999995
10
32.007199999999997
20
-0.96519999999999995
0
LINE
5
252
100
AcDbEntity
8
0
100
AcDbLine
10
63.753999999999998
20
23.890000000000001
30
0
11
63.753999999999998
21
22.289999999999999
31
0
0
LWPOLYLINE
5
253
100
AcDbEntity
8
0
100
AcDbPolyline
90
4
70
1
43
0.0
10
70.154800000000009
20
7.8232000000000017
10
70.154800000000009
20
8.5344000000000015
10
70.053200000000004
20
8.5344000000000015
10
70.053200000000004
20
7.8232000000000026
0
LWPOLYLINE
5
254
100
AcDbEntity
8
0
100
AcDbPolyline
90
4
70
1
43
0.0
10
36.344200000000001
20
-0.73660000000000003
10
32.235799999999998
20
-0.73660000000000003
10
32.235799999999998
20
3.8353999999999999
10
36.344200000000001
20
3.8353999999999999
0
LWPOLYLINE
5
255
100
AcDbEntity
8
0
100
AcDbPolyline
90
2
70
1
43
0.0
10
64.741200000000006
20
2.4986000000000002
42
0.99999999999999989
10
64.541200000000003
20
2.4986000000000002
42
0.99999999999999989
0
LINE
5
256
100
AcDbEntity
8
0
100
AcDbLine
10
72.031199999999998
20
1.4985999999999999
30
0
11
65.781199999999998
21
1.4985999999999999
31
0
0
LWPOLYLINE
5
257
100
AcDbEntity
8
0
100
AcDbPolyline
90
4
70
1
43
0.0
10
41.300399999999996
20
2.4891999999999999
10
41.402000000000001
20
2.4891999999999999
10
41.402000000000001
20
3.2004000000000001
10
41.300399999999996
20
3.2004000000000001
0
LWPOLYLINE
5
258
100
AcDbEntity
8
0
100
AcDbPolyline
90
4
70
1
43
0.0
10
41.402000000000001
20
-0.1016
10
41.402000000000001
20
0.60960000000000003
10
41.300400000000003
20
0.60960000000000003
10
41.300399999999996
20
-0.10160000000000002
0
CIRCLE
5
259
100
AcDbEntity
8
0
100
AcDbCircle
10
70.485000000000014
20
33.147000000000006
30
0
40
2.1000000000000001
210
0
220
0
230
1
0
LWPOLYLINE
5
260
100
AcDbEntity
8
0
100
AcDbPolyline
90
4
70
1
43
0.0
10
14.554200000000002
20
21.335999999999999
10
27.254200000000001
20
21.335999999999999
10
27.254200000000001
20
14.224
10
14.554200000000002
20
14.224
0
LINE
5
261
100
AcDbEntity
8
0
100
AcDbLine
10
14.348600000000001
20
-7.1755000000000013
30
0
11
14.2089
21
-7.0484999999999998
31
0
0
LINE
5
262
100
AcDbEntity
8
0
100
AcDbLine
10
17.908200000000001
20
-21.411799999999999
30
0
11
18.638200000000001
21
-21.411799999999999
31
0
0
LWPOLYLINE
5
263
100
AcDbEntity
8
0
100
AcDbPolyline
90
4
70
1
43
0.0
10
11.81
20
-11.174999999999999
10
11.81
20
-10.725
10
11.385000000000002
20
-10.725
10
11.385000000000002
20
-11.174999999999999
0
CIRCLE
5
264
100
AcDbEntity
8
0
100
AcDbCircle
10
14.935200000000002
20
13.665200000000002
30
0
40
0.23419999999999999
210
0
220
0
230
1
0
LINE
5
265
100
AcDbEntity
8
0
100
AcDbLine
10
24.398200000000003
20
-22.081800000000001
30
0
11
24.398200000000003
21
-21.431800000000003
31
0
0
LINE
5
266
100
AcDbEntity
8
0
100
AcDbLine
10
27.974800000000002
20
-20.636600000000001
30
0
11
25.974800000000002
21
-20.636600000000001
31
0
0
LWPOLYLINE
5
267
100
AcDbEntity
8
0
100
AcDbPolyline
90
3
70
1
43
0.0
10
27.052600000000005
20
6.902400000000001
10
27.6526
20
6.5024000000000006
10
27.052600000000005
20
6.1024000000000012
0
LWPOLYLINE
5
268
100
AcDbEntity
8
0
100
AcDbPolyline
90
4
70
1
43
0.0
10
-2.1233999999999997
20
10.894600000000001
10
-2.1234000000000002
20
27.154600000000002
10
13.6266
20
27.154600000000002
10
13.6266
20
10.894600000000001
0
LINE
5
269
100
AcDbEntity
8
0
100
AcDbLine
10
19.2682
20
-24.6218
30
0
11
23.058200000000003
21
-24.6218
31
0
0
ARC
5
270
100
AcDbEntity
8
0
100
AcDbCircle
10
24.587199999999999
20
-0.99060000000000015
30
0
40
0.50800000000000178
210
0
220
0
230
1
100
AcDbArc
50
0
51
180
0
LINE
5
271
100
AcDbEntity
8
0
100
AcDbLine
10
26.1526
20
7.2023999999999999
30
0
11
28.152600000000003
21
7.2023999999999999
31
0
0
CIRCLE
5
272
100
AcDbEntity
8
0
100
AcDbCircle
10
14.564500000000002
20
-6.7818000000000005
30
0
40
0.254
210
0
220
0
230
1
0
LINE
5
273
100
AcDbEntity
8
0
100
AcDbLine
10
14.348600000000001
20
-8.5471000000000004
30
0
11
14.348600000000001
21
-7.1755000000000013
31
0
0
CIRCLE
5
274
100
AcDbEntity
8
0
100
AcDbCircle
10
23.1282
20
-20.3218
30
0
40
0.20320000000000002
210
0
220
0
230
1
0
LINE
5
275
100
AcDbEntity
8
0
100
AcDbLine
10
24.398200000000003
20
-21.431800000000003
30
0
11
23.638200000000001
21
-21.431800000000003
31
0
0
CIRCLE
5
276
100
AcDbEntity
8
0
100
AcDbCircle
10
70.485000000000014
20
-22.859999999999999
30
0
40
2.1000000000000001
210
0
220
0
230
1
0
LINE
5
277
100
AcDbEntity
8
0
100
AcDbLine
10
28.193999999999999
20
22.289999999999999
30
0
11
28.193999999999999
21
23.890000000000001
31
0
0
LWPOLYLINE
5
278
100
AcDbEntity
8
0
100
AcDbPolyline
90
3
70
1
43
0.0
10
26.474799999999998
20
-19.936599999999999
10
27.074800000000003
20
-19.5366
10
27.074800000000003
20
-20.336600000000004
0
LINE
5
279
100
AcDbEntity
8
0
100
AcDbLine
10
28.901400000000002
20
-12.4224
30
0
11
27.851400000000002
21
-12.4224
31
0
0
LINE
5
280
100
AcDbEntity
8
0
100
AcDbLine
10
17.908200000000001
20
-22.101800000000004
30
0
11
17.908200000000001
21
-21.411799999999999
31
0
0
LINE
5
281
100
AcDbEntity
8
0
100
AcDbLine
10
65.781199999999998
20
-16.5014
30
0
11
72.031199999999998
21
-16.5014
31
0
0
LINE
5
282
100
AcDbEntity
8
0
100
AcDbLine
10
25.974800000000002
20
-19.236599999999999
30
0
11
27.974800000000002
21
-19.236599999999999
31
0
0
LINE
5
283
100
AcDbEntity
8
0
100
AcDbLine
10
14.2089
20
-8.5471000000000004
30
0
11
14.348600000000001
21
-8.5471000000000004
31
0
0
LINE
5
284
100
AcDbEntity
8
0
100
AcDbLine
10
28.152600000000003
20
5.8023999999999996
30
0
11
26.1526
21
5.8023999999999996
31
0
0
LINE
5
285
100
AcDbEntity
8
0
100
AcDbLine
10
14.699999999999999
20
-24.883800000000001
30
0
11
10.75
21
-24.883800000000001
31
0
0
LINE
5
286
100
AcDbEntity
8
0
100
AcDbLine
10
14.65
20
-21.953800000000001
30
0
11
10.700000000000001
21
-21.953800000000001
31
0
0
LINE
5
287
100
AcDbEntity
8
0
100
AcDbLine
10
12.1134
20
-7.0484999999999998
30
0
11
12.1134
21
-8.5471000000000004
31
0
0
LWPOLYLINE
5
288
100
AcDbEntity
8
0
100
AcDbPolyline
90
3
70
1
43
0.0
10
8.4646000000000008
20
-7.821600000000001
10
8.8645999999999994
20
-7.2216000000000005
10
9.2646000000000015
20
-7.821600000000001
0
LINE
5
289
100
AcDbEntity
8
0
100
AcDbLine
10
4.4097999999999997
20
-8.3800000000000008
30
0
11
2.6097999999999999
21
-8.3800000000000008
31
0
0
CIRCLE
5
290
100
AcDbEntity
8
0
100
AcDbCircle
10
2.54
20
33.147000000000006
30
0
40
2.1000000000000001
210
0
220
0
230
1
0
LINE
5
291
100
AcDbEntity
8
0
100
AcDbLine
10
4.4097999999999997
20
-17.02
30
0
11
2.6097999999999999
21
-17.02
31
0
0
LINE
5
292
100
AcDbEntity
8
0
100
AcDbLine
10
8.1646000000000001
20
-8.7216000000000005
30
0
11
8.1646000000000001
21
-6.7215999999999996
31
0
0
LINE
5
293
100
AcDbEntity
8
0
100
AcDbLine
10
9.5646000000000004
20
-6.7215999999999996
30
0
11
9.5646000000000004
21
-8.7216000000000005
31
0
0
CIRCLE
5
294
100
AcDbEntity
8
0
100
AcDbCircle
10
2.54
20
-22.859999999999999
30
0
40
2.1000000000000001
210
0
220
0
230
1
0
LINE
5
295
100
AcDbEntity
8
0
100
AcDbLine
10
12.1134
20
-8.5471000000000004
30
0
11
12.253100000000002
21
-8.5471000000000004
31
0
0
LINE
5
296
100
AcDbEntity
8
0
100
AcDbLine
10
12.253100000000002
20
-7.0484999999999998
30
0
11
12.1134
21
-7.0484999999999998
31
0
0
LWPOLYLINE
5
297
100
AcDbEntity
8
0
100
AcDbPolyline
90
4
70
1
43
0.0
10
38.806400000000004
20
3.1496499999999998
10
38.506399999999999
20
3.1496499999999998
10
38.506399999999999
20
2.54975
10
38.806399999999996
20
2.54975
0
LINE
5
298
100
AcDbEntity
8
0
100
AcDbLine
10
38.8202
20
3.0688000000000004
30
0
11
39.310200000000002
21
3.0688000000000004
31
0
0
LWPOLYLINE
5
299
100
AcDbEntity
8
0
100
AcDbPolyline
90
4
70
1
43
0.0
10
36.572800000000001
20
-0.50220000000000031
10
37.411000000000001
20
-0.50219999999999998
10
37.411000000000001
20
-0.29899999999999982
10
36.572800000000001
20
-0.29900000000000027
0
LWPOLYLINE
5
300
100
AcDbEntity
8
0
100
AcDbPolyline
90
4
70
1
43
0.0
10
36.957000000000008
20
-1.5240500000000001
10
36.957000000000001
20
-2.1239499999999998
10
37.256999999999998
20
-2.1239499999999998
10
37.257000000000005
20
-1.5240500000000001
0
LWPOLYLINE
5
301
100
AcDbEntity
8
0
100
AcDbPolyline
90
4
70
1
43
0.0
10
36.572800000000001
20
2.7478000000000002
10
37.411000000000001
20
2.7478000000000002
10
37.411000000000001
20
2.9510000000000005
10
36.572800000000001
20
2.9509999999999996
0
LWPOLYLINE
5
302
100
AcDbEntity
8
0
100
AcDbPolyline
90
4
70
1
43
0.0
10
37.411000000000001
20
2.3010000000000002
10
36.572800000000001
20
2.3009999999999997
10
36.572800000000001
20
2.0977999999999994
10
37.411000000000001
20
2.0978000000000003
0
LWPOLYLINE
5
303
100
AcDbEntity
8
0
100
AcDbPolyline
90
4
70
1
43
0.0
10
37.411000000000001
20
1.4478000000000004
10
37.411000000000001
20
1.6510000000000005
10
36.572800000000001
20
1.651
10
36.572800000000001
20
1.4478
0
LWPOLYLINE
5
304
100
AcDbEntity
8
0
100
AcDbPolyline
90
4
70
1
43
0.0
10
38.511200000000002
20
0.54915000000000003
10
38.511200000000002
20
-0.050749999999999997
10
38.811199999999999
20
-0.050749999999999997
10
38.811200000000007
20
0.54915000000000003
0
LINE
5
305
100
AcDbEntity
8
0
100
AcDbLine
10
39.310200000000002
20
0.029999999999999999
30
0
11
38.8202
21
0.029999999999999999
31
0
0
LWPOLYLINE
5
306
100
AcDbEntity
8
0
100
AcDbPolyline
90
4
70
1
43
0.0
10
39.324000000000005
20
0.54915000000000003
10
39.323999999999998
20
-0.050749999999999962
10
39.624000000000002
20
-0.050749999999999997
10
39.624000000000002
20
0.54915000000000003
0
LWPOLYLINE
5
307
100
AcDbEntity
8
0
100
AcDbPolyline
90
4
70
1
43
0.0
10
39.319200000000009
20
3.1496499999999998
10
39.319200000000002
20
2.54975
10
39.619200000000006
20
2.54975
10
39.619200000000006
20
3.1496499999999998
0
LWPOLYLINE
5
308
100
AcDbEntity
8
0
100
AcDbPolyline
90
4
70
1
43
0.0
10
51.389000000000003
20
3.7084500000000005
10
51.689
20
3.7084500000000005
10
51.689
20
4.3083499999999999
10
51.388999999999996
20
4.3083499999999999
0
LWPOLYLINE
5
309
100
AcDbEntity
8
0
100
AcDbPolyline
90
4
70
1
43
0.0
10
53.53840000000001
20
3.7181500000000001
10
53.538399999999996
20
4.3180499999999995
10
53.238400000000006
20
4.3180499999999995
10
53.238400000000006
20
3.7181500000000001
0
LWPOLYLINE
5
310
100
AcDbEntity
8
0
100
AcDbPolyline
90
4
70
1
43
0.0
10
50.576200000000007
20
3.7084500000000005
10
50.876200000000004
20
3.7084500000000005
10
50.876200000000004
20
4.3083499999999999
10
50.5762
20
4.3083499999999999
0
LINE
5
311
100
AcDbEntity
8
0
100
AcDbLine
10
51.375200000000007
20
3.7892000000000001
30
0
11
50.885199999999998
21
3.7892000000000001
31
0
0
LINE
5
312
100
AcDbEntity
8
0
100
AcDbLine
10
35.050600000000003
20
14.078200000000001
30
0
11
34.550600000000003
21
14.578200000000001
31
0
0
LWPOLYLINE
5
313
100
AcDbEntity
8
0
100
AcDbPolyline
90
4
70
1
43
0.0
10
41.711600000000004
20
16.39865
10
41.711600000000004
20
15.798750000000002
10
42.011600000000008
20
15.798750000000002
10
42.011600000000001
20
16.39865
0
LINE
5
314
100
AcDbEntity
8
0
100
AcDbLine
10
41.697800000000001
20
15.8796
30
0
11
41.207799999999999
21
15.8796
31
0
0
LINE
5
315
100
AcDbEntity
8
0
100
AcDbLine
10
41.207799999999999
20
15.286200000000001
30
0
11
41.697800000000001
21
15.286200000000001
31
0
0
LWPOLYLINE
5
316
100
AcDbEntity
8
0
100
AcDbPolyline
90
4
70
1
43
0.0
10
39.175600000000003
20
18.703199999999999
10
39.175600000000003
20
13.453200000000001
10
33.925600000000003
20
13.453200000000001
10
33.925600000000003
20
18.703199999999999
0
LWPOLYLINE
5
317
100
AcDbEntity
8
0
100
AcDbPolyline
90
4
70
1
43
0.0
10
41.711600000000004
20
15.35735
10
41.711600000000004
20
14.75745
10
42.011600000000008
20
14.75745
10
42.011600000000001
20
15.35735
0
LINE
5
318
100
AcDbEntity
8
0
100
AcDbLine
10
41.697800000000001
20
14.838200000000001
30
0
11
41.207799999999999
21
14.838200000000001
31
0
0
LWPOLYLINE
5
319
100
AcDbEntity
8
0
100
AcDbPolyline
90
4
70
1
43
0.0
10
40.898800000000008
20
14.75745
10
41.198800000000013
20
14.75745
10
41.198800000000006
20
15.35735
10
40.898800000000001
20
15.35735
0
LWPOLYLINE
5
320
100
AcDbEntity
8
0
100
AcDbPolyline
90
4
70
1
43
0.0
10
34.550600000000003
20
14.078200000000001
10
34.550600000000003
20
18.078199999999999
10
38.550600000000003
20
18.078199999999999
10
38.550600000000003
20
14.078200000000001
0
LWPOLYLINE
5
321
100
AcDbEntity
8
0
100
AcDbPolyline
90
4
70
1
43
0.0
10
40.898800000000001
20
16.39865
10
40.898800000000008
20
15.798750000000002
10
41.198800000000013
20
15.798750000000002
10
41.198800000000006
20
16.39865
0
LINE
5
322
100
AcDbEntity
8
0
100
AcDbLine
10
41.207799999999999
20
16.327600000000004
30
0
11
41.697800000000001
21
16.327600000000004
31
0
0
LINE
5
323
100
AcDbEntity
8
0
100
AcDbLine
10
39.310200000000002
20
2.6208000000000005
30
0
11
38.8202
21
2.6208000000000005
31
0
0
LWPOLYLINE
5
324
100
AcDbEntity
8
0
100
AcDbPolyline
90
4
70
1
43
0.0
10
36.572800000000001
20
1.0009999999999999
10
36.572800000000001
20
0.79779999999999984
10
37.411000000000001
20
0.79780000000000018
10
37.411000000000001
20
1.0010000000000003
0
LWPOLYLINE
5
325
100
AcDbEntity
8
0
100
AcDbPolyline
90
4
70
1
43
0.0
10
36.444199999999995
20
-1.5240500000000001
10
36.144199999999998
20
-1.5240500000000001
10
36.144199999999998
20
-2.1239499999999998
10
36.444199999999995
20
-2.1239499999999998
0
LWPOLYLINE
5
326
100
AcDbEntity
8
0
100
AcDbPolyline
90
4
70
1
43
0.0
10
36.572800000000001
20
3.601
10
36.572800000000001
20
3.3978000000000002
10
37.411000000000001
20
3.397800000000001
10
37.411000000000001
20
3.6010000000000004
0
LWPOLYLINE
5
327
100
AcDbEntity
8
0
100
AcDbPolyline
90
4
70
1
43
0.0
10
36.572800000000001
20
0.14779999999999982
10
37.411000000000001
20
0.14780000000000018
10
37.411000000000001
20
0.35100000000000026
10
36.572800000000001
20
0.35099999999999987
0
LWPOLYLINE
5
328
100
AcDbEntity
8
0
100
AcDbPolyline
90
4
70
1
43
0.0
10
38.471350000000001
20
12.115800000000004
10
38.471350000000001
20
12.415800000000004
10
37.871450000000003
20
12.415800000000001
10
37.871450000000003
20
12.115800000000004
0
LWPOLYLINE
5
329
100
AcDbEntity
8
0
100
AcDbPolyline
90
4
70
1
43
0.0
10
39.255699999999997
20
11.08225
10
40.2057
20
11.08225
10
40.2057
20
11.582349999999998
10
39.255699999999997
20
11.582349999999998
0
LWPOLYLINE
5
330
100
AcDbEntity
8
0
100
AcDbPolyline
90
4
70
1
43
0.0
10
39.255699999999997
20
10.41395
10
39.255699999999997
20
9.9138500000000018
10
40.2057
20
9.9138500000000018
10
40.2057
20
10.41395
0
LINE
5
331
100
AcDbEntity
8
0
100
AcDbLine
10
39.306600000000003
20
11.100200000000001
30
0
11
39.306600000000003
21
10.388200000000001
31
0
0
LINE
5
332
100
AcDbEntity
8
0
100
AcDbLine
10
40.157600000000002
20
11.100200000000001
30
0
11
40.157600000000002
21
10.388200000000001
31
0
0
LINE
5
333
100
AcDbEntity
8
0
100
AcDbLine
10
38.400199999999998
20
12.1068
30
0
11
38.400199999999998
21
11.616800000000001
31
0
0
LWPOLYLINE
5
334
100
AcDbEntity
8
0
100
AcDbPolyline
90
4
70
1
43
0.0
10
38.471350000000001
20
11.603000000000002
10
37.871450000000003
20
11.602999999999998
10
37.871450000000003
20
11.303000000000001
10
38.471350000000001
20
11.303000000000001
0
LINE
5
335
100
AcDbEntity
8
0
100
AcDbLine
10
38.8202
20
0.47800000000000004
30
0
11
39.310200000000002
21
0.47800000000000004
31
0
0
LINE
5
336
100
AcDbEntity
8
0
100
AcDbLine
10
37.952199999999998
20
11.616800000000001
30
0
11
37.952199999999998
21
12.1068
31
0
0
LINE
5
337
100
AcDbEntity
8
0
100
AcDbLine
10
36.948
20
-2.0528000000000004
30
0
11
36.457999999999998
21
-2.0528000000000004
31
0
0
LINE
5
338
100
AcDbEntity
8
0
100
AcDbLine
10
36.457999999999998
20
-1.6048
30
0
11
36.948
21
-1.6048
31
0
0
LWPOLYLINE
5
339
100
AcDbEntity
8
0
100
AcDbPolyline
90
4
70
1
43
0.0
10
13.4572
20
10.337850000000001
10
13.157200000000003
20
10.337850000000001
10
13.157200000000003
20
9.7379500000000014
10
13.457200000000002
20
9.7379500000000014
0
LWPOLYLINE
5
340
100
AcDbEntity
8
0
100
AcDbPolyline
90
4
70
1
43
0.0
10
16.713249999999999
20
4.0434000000000001
10
16.713249999999999
20
4.3433999999999999
10
16.113350000000001
20
4.3433999999999999
10
16.113350000000001
20
4.0434000000000001
0
LWPOLYLINE
5
341
100
AcDbEntity
8
0
100
AcDbPolyline
90
4
70
1
43
0.0
10
22.959099999999999
20
-11.176050000000002
10
22.0091
20
-11.176050000000002
10
22.009100000000004
20
-11.67615
10
22.959099999999999
20
-11.67615
0
LWPOLYLINE
5
342
100
AcDbEntity
8
0
100
AcDbPolyline
90
4
70
1
43
0.0
10
16.789400000000001
20
2.7177999999999995
10
16.205199999999998
20
2.7178000000000004
10
16.205199999999998
20
2.2606000000000002
10
16.789400000000001
20
2.2606000000000002
0
LWPOLYLINE
5
343
100
AcDbEntity
8
0
100
AcDbPolyline
90
4
70
1
43
0.0
10
29.286199999999994
20
-23.368000000000002
10
29.286200000000001
20
-23.875999999999998
10
29.794199999999996
20
-23.875999999999998
10
29.794199999999996
20
-23.368000000000002
0
LINE
5
344
100
AcDbEntity
8
0
100
AcDbLine
10
27.397600000000004
20
4.9068000000000005
30
0
11
26.907600000000002
21
4.9068000000000005
31
0
0
LWPOLYLINE
5
345
100
AcDbEntity
8
0
100
AcDbPolyline
90
4
70
1
43
0.0
10
32.583399999999997
20
19.761150000000004
10
32.2834
20
19.761150000000004
10
32.2834
20
19.161250000000003
10
32.583399999999997
20
19.161250000000003
0
LWPOLYLINE
5
346
100
AcDbEntity
8
0
100
AcDbPolyline
90
4
70
1
43
0.0
10
24.323549999999997
20
-10.774400000000002
10
23.723649999999999
20
-10.774400000000002
10
23.723649999999999
20
-11.074400000000002
10
24.323549999999997
20
-11.074400000000001
0
LINE
5
347
100
AcDbEntity
8
0
100
AcDbLine
10
16.632400000000001
20
4.8423999999999996
30
0
11
16.632400000000001
21
4.3524000000000012
31
0
0
LINE
5
348
100
AcDbEntity
8
0
100
AcDbLine
10
30.611600000000003
20
-12.8942
30
0
11
30.611600000000003
21
-12.404200000000001
31
0
0
LWPOLYLINE
5
349
100
AcDbEntity
8
0
100
AcDbPolyline
90
4
70
1
43
0.0
10
33.396200000000007
20
19.761150000000004
10
33.09620000000001
20
19.761150000000004
10
33.096200000000003
20
19.161250000000003
10
33.3962
20
19.161250000000003
0
LWPOLYLINE
5
350
100
AcDbEntity
8
0
100
AcDbPolyline
90
4
70
1
43
0.0
10
31.140450000000001
20
-12.090399999999999
10
30.54055
20
-12.090399999999999
10
30.54055
20
-12.390400000000001
10
31.140450000000001
20
-12.3904
0
LWPOLYLINE
5
351
100
AcDbEntity
8
0
100
AcDbPolyline
90
4
70
1
43
0.0
10
32.19755
20
-12.395199999999999
10
32.19755
20
-12.095199999999998
10
31.597650000000002
20
-12.095200000000002
10
31.597650000000002
20
-12.395199999999999
0
LWPOLYLINE
5
352
100
AcDbEntity
8
0
100
AcDbPolyline
90
4
70
1
43
0.0
10
27.254200000000004
20
-23.875999999999998
10
27.254200000000001
20
-23.368000000000002
10
26.746200000000002
20
-23.368000000000002
10
26.746200000000005
20
-23.875999999999998
0
LWPOLYLINE
5
353
100
AcDbEntity
8
0
100
AcDbPolyline
90
4
70
1
43
0.0
10
33.26435
20
-13.208
10
33.26435
20
-12.907999999999999
10
32.664450000000002
20
-12.908000000000001
10
32.664450000000002
20
-13.208000000000002
0
LWPOLYLINE
5
354
100
AcDbEntity
8
0
100
AcDbPolyline
90
4
70
1
43
0.0
10
16.113350000000001
20
4.8561999999999994
10
16.713249999999999
20
4.8561999999999994
10
16.713249999999999
20
5.1562000000000001
10
16.113350000000001
20
5.1562000000000001
0
LWPOLYLINE
5
355
100
AcDbEntity
8
0
100
AcDbPolyline
90
4
70
1
43
0.0
10
23.723649999999999
20
-9.9616000000000007
10
23.723649999999999
20
-10.2616
10
24.323549999999997
20
-10.2616
10
24.323549999999997
20
-9.9615999999999989
0
LWPOLYLINE
5
356
100
AcDbEntity
8
0
100
AcDbPolyline
90
4
70
1
43
0.0
10
6.514800000000001
20
-9.6750000000000007
10
6.514800000000001
20
-9.2750000000000004
10
6.0148000000000001
20
-9.2750000000000004
10
6.0148000000000001
20
-9.6750000000000007
0
LINE
5
357
100
AcDbEntity
8
0
100
AcDbLine
10
30.297599999999999
20
5.1980000000000004
30
0
11
30.297599999999999
21
4.7080000000000002
31
0
0
LWPOLYLINE
5
358
100
AcDbEntity
8
0
100
AcDbPolyline
90
4
70
1
43
0.0
10
22.009100000000004
20
-10.50765
10
22.959099999999999
20
-10.50765
10
22.959099999999999
20
-10.007549999999998
10
22.009100000000004
20
-10.00755
0
LWPOLYLINE
5
359
100
AcDbEntity
8
0
100
AcDbPolyline
90
4
70
1
43
0.0
10
20.927100000000003
20
-11.176050000000002
10
19.977100000000004
20
-11.176050000000002
10
19.977100000000004
20
-11.67615
10
20.927100000000003
20
-11.67615
0
LWPOLYLINE
5
360
100
AcDbEntity
8
0
100
AcDbPolyline
90
4
70
1
43
0.0
10
22.514150000000001
20
23.652200000000004
10
23.114050000000002
20
23.652200000000001
10
23.114050000000002
20
23.952200000000001
10
22.514150000000001
20
23.952200000000001
0
LWPOLYLINE
5
361
100
AcDbEntity
8
0
100
AcDbPolyline
90
4
70
1
43
0.0
10
19.977100000000004
20
-10.00755
10
19.977100000000004
20
-10.507650000000002
10
20.927100000000003
20
-10.50765
10
20.927100000000003
20
-10.00755
0
LWPOLYLINE
5
362
100
AcDbEntity
8
0
100
AcDbPolyline
90
4
70
1
43
0.0
10
32.664450000000002
20
-12.095200000000002
10
32.664450000000002
20
-12.395200000000003
10
33.26435
20
-12.395199999999999
10
33.26435
20
-12.095200000000002
0
LWPOLYLINE
5
363
100
AcDbEntity
8
0
100
AcDbPolyline
90
4
70
1
43
0.0
10
30.378450000000001
20
5.2118000000000002
10
30.378450000000001
20
5.5118
10
29.778549999999999
20
5.5118
10
29.778549999999999
20
5.2118000000000002
0
LINE
5
364
100
AcDbEntity
8
0
100
AcDbLine
10
20.028000000000002
20
-10.489800000000001
30
0
11
20.028000000000002
21
-11.201800000000002
31
0
0
LWPOLYLINE
5
365
100
AcDbEntity
8
0
100
AcDbPolyline
90
4
70
1
43
0.0
10
12.344400000000002
20
9.7379500000000014
10
12.644400000000001
20
9.7379500000000014
10
12.644400000000001
20
10.337850000000001
10
12.3444
20
10.337850000000001
0
LWPOLYLINE
5
366
100
AcDbEntity
8
0
100
AcDbPolyline
90
4
70
1
43
0.0
10
31.140450000000001
20
-13.203199999999999
10
31.140450000000001
20
-12.903199999999998
10
30.54055
20
-12.903199999999998
10
30.54055
20
-13.203200000000002
0
LINE
5
367
100
AcDbEntity
8
0
100
AcDbLine
10
32.190800000000003
20
14.829000000000001
30
0
11
32.680799999999998
21
14.829000000000001
31
0
0
LINE
5
368
100
AcDbEntity
8
0
100
AcDbLine
10
31.6784
20
-12.8942
30
0
11
31.6784
21
-12.404200000000001
31
0
0
LWPOLYLINE
5
369
100
AcDbEntity
8
0
100
AcDbPolyline
90
4
70
1
43
0.0
10
31.877000000000002
20
14.90985
10
31.876999999999999
20
14.309950000000001
10
32.177
20
14.309950000000001
10
32.177
20
14.90985
0
LWPOLYLINE
5
370
100
AcDbEntity
8
0
100
AcDbPolyline
90
4
70
1
43
0.0
10
32.19755
20
-12.908000000000001
10
31.597650000000002
20
-12.908000000000001
10
31.597650000000002
20
-13.208
10
32.19755
20
-13.208
0
LINE
5
371
100
AcDbEntity
8
0
100
AcDbLine
10
20.879000000000005
20
-10.489800000000001
30
0
11
20.879000000000005
21
-11.201800000000002
31
0
0
LWPOLYLINE
5
372
100
AcDbEntity
8
0
100
AcDbPolyline
90
4
70
1
43
0.0
10
31.169000000000004
20
2.7478000000000002
10
32.007200000000005
20
2.7478000000000007
10
32.007200000000005
20
2.9510000000000005
10
31.169000000000004
20
2.9510000000000005
0
LWPOLYLINE
5
373
100
AcDbEntity
8
0
100
AcDbPolyline
90
4
70
1
43
0.0
10
32.689799999999998
20
14.90985
10
32.689799999999998
20
14.309950000000001
10
32.989799999999995
20
14.309950000000001
10
32.989799999999995
20
14.90985
0
LWPOLYLINE
5
374
100
AcDbEntity
8
0
100
AcDbPolyline
90
4
70
1
43
0.0
10
30.378450000000001
20
4.3990000000000009
10
30.378450000000001
20
4.6990000000000007
10
29.778549999999999
20
4.6990000000000007
10
29.778549999999999
20
4.3990000000000009
0
LINE
5
375
100
AcDbEntity
8
0
100
AcDbLine
10
16.1844
20
4.3524000000000012
30
0
11
16.1844
21
4.8423999999999996
31
0
0
LINE
5
376
100
AcDbEntity
8
0
100
AcDbLine
10
32.680799999999998
20
14.381000000000002
30
0
11
32.190800000000003
21
14.381000000000002
31
0
0
LINE
5
377
100
AcDbEntity
8
0
100
AcDbLine
10
32.745199999999997
20
-12.8942
30
0
11
32.745199999999997
21
-12.404200000000001
31
0
0
LINE
5
378
100
AcDbEntity
8
0
100
AcDbLine
10
23.804400000000001
20
-10.7606
30
0
11
23.804400000000001
21
-10.270600000000002
31
0
0
LWPOLYLINE
5
379
100
AcDbEntity
8
0
100
AcDbPolyline
90
4
70
1
43
0.0
10
18.796000000000003
20
1.778
10
18.211800000000004
20
1.7780000000000005
10
18.211800000000004
20
1.3208000000000002
10
18.796000000000003
20
1.3208000000000002
0
LWPOLYLINE
5
380
100
AcDbEntity
8
0
100
AcDbPolyline
90
4
70
1
43
0.0
10
-1.0851999999999999
20
-8.3800000000000008
10
-1.0852000000000006
20
-17.02
10
6.2648000000000001
20
-17.02
10
6.264800000000001
20
-8.3800000000000008
0
LWPOLYLINE
5
381
100
AcDbEntity
8
0
100
AcDbPolyline
90
4
70
1
43
0.0
10
25.654050000000002
20
23.952200000000001
10
25.05415
20
23.952200000000001
10
25.05415
20
23.652200000000001
10
25.654050000000002
20
23.652200000000001
0
LINE
5
382
100
AcDbEntity
8
0
100
AcDbLine
10
22.911000000000001
20
-10.489800000000001
30
0
11
22.911000000000001
21
-11.201800000000002
31
0
0
LWPOLYLINE
5
383
100
AcDbEntity
8
0
100
AcDbPolyline
90
4
70
1
43
0.0
10
6.078450000000001
20
-4.3663000000000007
10
6.5785499999999999
20
-4.3662999999999998
10
6.5785499999999999
20
-3.4162999999999997
10
6.078450000000001
20
-3.4163000000000006
0
LWPOLYLINE
5
384
100
AcDbEntity
8
0
100
AcDbPolyline
90
4
70
1
43
0.0
10
7.0709499999999998
20
2.1081999999999996
10
7.0709499999999998
20
1.8081999999999998
10
7.6708499999999997
20
1.8082
10
7.6708499999999997
20
2.1082000000000001
0
LINE
5
385
100
AcDbEntity
8
0
100
AcDbLine
10
6.1719999999999997
20
-5.1566000000000001
30
0
11
4.242
21
-5.1566000000000001
31
0
0
LWPOLYLINE
5
386
100
AcDbEntity
8
0
100
AcDbPolyline
90
4
70
1
43
0.0
10
25.05415
20
24.765000000000001
10
25.05415
20
24.465000000000003
10
25.654050000000002
20
24.465
10
25.654050000000002
20
24.765000000000001
0
LINE
5
387
100
AcDbEntity
8
0
100
AcDbLine
10
25.573200000000003
20
24.4512
30
0
11
25.573200000000003
21
23.961200000000002
31
0
0
LWPOLYLINE
5
388
100
AcDbEntity
8
0
100
AcDbPolyline
90
4
70
1
43
0.0
10
4.9101500000000007
20
-3.4163000000000006
10
4.9101500000000007
20
-4.3662999999999998
10
5.4102499999999996
20
-4.3662999999999998
10
5.4102499999999996
20
-3.4162999999999997
0
LWPOLYLINE
5
389
100
AcDbEntity
8
0
100
AcDbPolyline
90
4
70
1
43
0.0
10
26.542999999999999
20
3.2004000000000001
10
27.686
20
3.2004000000000006
10
27.686
20
3.7084000000000006
10
26.542999999999999
20
3.7084000000000001
0
LWPOLYLINE
5
390
100
AcDbEntity
8
0
100
AcDbPolyline
90
4
70
1
43
0.0
10
23.114050000000002
20
24.764999999999997
10
22.514150000000001
20
24.765000000000001
10
22.514150000000001
20
24.465000000000003
10
23.114050000000002
20
24.465
0
LINE
5
391
100
AcDbEntity
8
0
100
AcDbLine
10
22.585200000000004
20
23.961200000000002
30
0
11
22.585200000000004
21
24.4512
31
0
0
LWPOLYLINE
5
392
100
AcDbEntity
8
0
100
AcDbPolyline
90
4
70
1
43
0.0
10
4.2553500000000009
20
-5.0945000000000009
10
3.5052500000000002
20
-5.0945000000000009
10
3.5052500000000002
20
-6.7945000000000011
10
4.2553500000000009
20
-6.7945000000000002
0
ARC
5
393
100
AcDbEntity
8
0
100
AcDbCircle
10
-24.0822
20
-12.699999999999999
30
0
40
23.394400000000001
210
0
220
0
230
1
100
AcDbArc
50
-10.641299999999999
51
10.641299999999985
0
LINE
5
394
100
AcDbEntity
8
0
100
AcDbLine
10
26.907600000000002
20
5.3548000000000009
30
0
11
27.397600000000004
21
5.3548000000000009
31
0
0
LINE
5
395
100
AcDbEntity
8
0
100
AcDbLine
10
24.252400000000005
20
-10.270600000000002
30
0
11
24.252400000000005
21
-10.7606
31
0
0
LWPOLYLINE
5
396
100
AcDbEntity
8
0
100
AcDbPolyline
90
4
70
1
43
0.0
10
31.169000000000004
20
3.3978000000000002
10
32.007200000000005
20
3.3978000000000002
10
32.007200000000005
20
3.6010000000000004
10
31.169000000000004
20
3.6010000000000004
0
LINE
5
397
100
AcDbEntity
8
0
100
AcDbLine
10
12.658200000000001
20
10.257000000000001
30
0
11
13.148200000000001
21
10.257000000000001
31
0
0
LINE
5
398
100
AcDbEntity
8
0
100
AcDbLine
10
6.0964000000000009
20
-4.3182
30
0
11
5.3844000000000003
21
-4.3182
31
0
0
LINE
5
399
100
AcDbEntity
8
0
100
AcDbLine
10
23.033200000000001
20
24.4512
30
0
11
23.033200000000001
21
23.961200000000002
31
0
0
LINE
5
400
100
AcDbEntity
8
0
100
AcDbLine
10
25.125200000000003
20
23.961200000000002
30
0
11
25.125200000000003
21
24.4512
31
0
0
LWPOLYLINE
5
401
100
AcDbEntity
8
0
100
AcDbPolyline
90
4
70
1
43
0.0
10
32.007200000000005
20
2.0977999999999999
10
32.007200000000005
20
2.3010000000000002
10
31.169000000000004
20
2.3009999999999997
10
31.169000000000004
20
2.0977999999999994
0
LINE
5
402
100
AcDbEntity
8
0
100
AcDbLine
10
22.059999999999999
20
-10.489800000000001
30
0
11
22.059999999999999
21
-11.201800000000002
31
0
0
LINE
5
403
100
AcDbEntity
8
0
100
AcDbLine
10
6.0964000000000009
20
-3.4672000000000001
30
0
11
5.3844000000000003
21
-3.4672000000000001
31
0
0
LWPOLYLINE
5
404
100
AcDbEntity
8
0
100
AcDbPolyline
90
12
70
1
43
0.0
10
9.0546000000000006
20
2.5394000000000005
10
9.0546000000000006
20
5.6394000000000011
10
9.0546000000000006
20
2.5394000000000005
10
13.754600000000002
20
2.5394000000000001
10
12.804600000000001
20
2.5394000000000005
10
12.804600000000001
20
5.6394000000000011
10
13.754600000000002
20
5.6394000000000002
10
13.754600000000002
20
2.5394000000000001
10
13.754600000000002
20
5.6394000000000002
10
9.0546000000000006
20
5.6394000000000011
10
10.004600000000002
20
5.6394000000000011
10
10.004600000000002
20
2.5394000000000005
0
LINE
5
405
100
AcDbEntity
8
0
100
AcDbLine
10
29.849600000000002
20
4.7080000000000002
30
0
11
29.849600000000002
21
5.1980000000000004
31
0
0
LWPOLYLINE
5
406
100
AcDbEntity
8
0
100
AcDbPolyline
90
4
70
1
43
0.0
10
24.384049999999998
20
25.658800000000003
10
24.384049999999998
20
25.958800000000007
10
23.78415
20
25.958800000000007
10
23.78415
20
25.658800000000006
0
LWPOLYLINE
5
407
100
AcDbEntity
8
0
100
AcDbPolyline
90
4
70
1
43
0.0
10
27.852600000000002
20
7.2024000000000008
10
27.652600000000007
20
7.2023999999999999
10
27.652600000000007
20
5.8024000000000004
10
27.852600000000006
20
5.8024000000000004
0
LWPOLYLINE
5
408
100
AcDbEntity
8
0
100
AcDbPolyline
90
4
70
1
43
0.0
10
24.688800000000001
20
6.8071500000000009
10
24.688800000000001
20
6.207250000000001
10
24.988799999999998
20
6.207250000000001
10
24.988800000000001
20
6.8071500000000009
0
LWPOLYLINE
5
409
100
AcDbEntity
8
0
100
AcDbPolyline
90
4
70
1
43
0.0
10
26.474799999999998
20
-19.236599999999999
10
26.274800000000003
20
-19.236599999999999
10
26.274800000000003
20
-20.636600000000001
10
26.474800000000002
20
-20.636600000000001
0
LWPOLYLINE
5
410
100
AcDbEntity
8
0
100
AcDbPolyline
90
4
70
1
43
0.0
10
23.78415
20
26.771600000000003
10
23.78415
20
26.471599999999999
10
24.384049999999998
20
26.471599999999999
10
24.384049999999998
20
26.771599999999999
0
LWPOLYLINE
5
411
100
AcDbEntity
8
0
100
AcDbPolyline
90
4
70
1
43
0.0
10
6.908850000000001
20
-5.0926999999999998
10
6.1587500000000004
20
-5.0927000000000007
10
6.1587500000000004
20
-6.7927
10
6.908850000000001
20
-6.7927
0
LWPOLYLINE
5
412
100
AcDbEntity
8
0
100
AcDbPolyline
90
4
70
1
43
0.0
10
14.729650000000001
20
-7.5184000000000006
10
15.329550000000001
20
-7.5184000000000006
10
15.329550000000001
20
-7.2184000000000008
10
14.729650000000001
20
-7.2184000000000008
0
LWPOLYLINE
5
413
100
AcDbEntity
8
0
100
AcDbPolyline
90
4
70
1
43
0.0
10
13.779400000000003
20
-8.4836000000000009
10
13.779400000000003
20
-8.8392000000000017
10
13.982600000000001
20
-8.8392000000000017
10
13.982600000000001
20
-8.4836000000000009
0
LWPOLYLINE
5
414
100
AcDbEntity
8
0
100
AcDbPolyline
90
4
70
1
43
0.0
10
26.593800000000002
20
5.4356499999999999
10
26.593800000000002
20
4.83575
10
26.893800000000002
20
4.83575
10
26.893800000000002
20
5.4356499999999999
0
LINE
5
415
100
AcDbEntity
8
0
100
AcDbLine
10
15.258400000000002
20
-7.527400000000001
30
0
11
15.258400000000002
21
-8.0174000000000021
31
0
0
LINE
5
416
100
AcDbEntity
8
0
100
AcDbLine
10
24.3032
20
26.457800000000002
30
0
11
24.3032
21
25.967800000000004
31
0
0
LINE
5
417
100
AcDbEntity
8
0
100
AcDbLine
10
23.8552
20
25.967800000000004
30
0
11
23.8552
21
26.457800000000002
31
0
0
LINE
5
418
100
AcDbEntity
8
0
100
AcDbLine
10
24.482199999999999
20
-24.307800000000004
30
0
11
24.482199999999999
21
-23.9268
31
0
0
LINE
5
419
100
AcDbEntity
8
0
100
AcDbLine
10
24.101199999999999
20
-24.307800000000004
30
0
11
24.482199999999999
21
-24.307800000000004
31
0
0
LINE
5
420
100
AcDbEntity
8
0
100
AcDbLine
10
25.974800000000002
20
-20.636600000000001
30
0
11
25.974800000000002
21
-19.236599999999999
31
0
0
LINE
5
421
100
AcDbEntity
8
0
100
AcDbLine
10
24.482199999999999
20
-23.9268
30
0
11
24.101199999999999
21
-23.9268
31
0
0
LWPOLYLINE
5
422
100
AcDbEntity
8
0
100
AcDbPolyline
90
4
70
1
43
0.0
10
13.779400000000003
20
-7.1120000000000001
10
13.982600000000001
20
-7.1120000000000001
10
13.982600000000001
20
-6.7564000000000002
10
13.779400000000003
20
-6.7564000000000002
0
LINE
5
423
100
AcDbEntity
8
0
100
AcDbLine
10
18.235199999999999
20
-23.905799999999999
30
0
11
17.854199999999999
21
-23.905799999999999
31
0
0
LWPOLYLINE
5
424
100
AcDbEntity
8
0
100
AcDbPolyline
90
4
70
1
43
0.0
10
27.706600000000002
20
5.4356499999999999
10
27.406600000000005
20
5.4356499999999999
10
27.406600000000001
20
4.83575
10
27.706600000000002
20
4.83575
0
LWPOLYLINE
5
425
100
AcDbEntity
8
0
100
AcDbPolyline
90
4
70
1
43
0.0
10
26.517599999999998
20
1.9303999999999999
10
27.660599999999999
20
1.9304000000000006
10
27.660599999999999
20
2.4384000000000006
10
26.517599999999998
20
2.4384000000000001
0
LINE
5
426
100
AcDbEntity
8
0
100
AcDbLine
10
17.854199999999999
20
-23.905799999999999
30
0
11
17.854199999999999
21
-24.286799999999999
31
0
0
LINE
5
427
100
AcDbEntity
8
0
100
AcDbLine
10
17.854199999999999
20
-24.286799999999999
30
0
11
18.235199999999999
21
-24.286799999999999
31
0
0
LWPOLYLINE
5
428
100
AcDbEntity
8
0
100
AcDbPolyline
90
4
70
1
43
0.0
10
14.231
20
-8.4228000000000023
10
14.231
20
-7.1728000000000005
10
12.231000000000002
20
-7.1728000000000005
10
12.231000000000002
20
-8.4228000000000023
0
LINE
5
429
100
AcDbEntity
8
0
100
AcDbLine
10
14.810400000000001
20
-8.0174000000000021
30
0
11
14.810400000000001
21
-7.527400000000001
31
0
0
LWPOLYLINE
5
430
100
AcDbEntity
8
0
100
AcDbPolyline
90
4
70
1
43
0.0
10
21.488399999999999
20
3.7084000000000001
10
21.488399999999999
20
3.2004000000000001
10
22.631399999999999
20
3.2004000000000006
10
22.631399999999999
20
3.7084000000000006
0
LINE
5
431
100
AcDbEntity
8
0
100
AcDbLine
10
17.505199999999999
20
25.967800000000004
30
0
11
17.505199999999999
21
26.457800000000002
31
0
0
LWPOLYLINE
5
432
100
AcDbEntity
8
0
100
AcDbPolyline
90
4
70
1
43
0.0
10
14.729650000000001
20
-8.0312000000000001
10
14.729650000000001
20
-8.3312000000000008
10
15.329550000000001
20
-8.3312000000000008
10
15.329550000000001
20
-8.0312000000000001
0
LWPOLYLINE
5
433
100
AcDbEntity
8
0
100
AcDbPolyline
90
4
70
1
43
0.0
10
23.875999999999998
20
6.8071500000000009
10
23.875999999999998
20
6.207250000000001
10
24.176000000000002
20
6.207250000000001
10
24.176000000000002
20
6.8071500000000009
0
LINE
5
434
100
AcDbEntity
8
0
100
AcDbLine
10
9.9844000000000008
20
-20.895199999999999
30
0
11
9.9844000000000008
21
-20.405200000000004
31
0
0
LINE
5
435
100
AcDbEntity
8
0
100
AcDbLine
10
24.189800000000005
20
6.7263999999999999
30
0
11
24.679800000000004
21
6.7263999999999999
31
0
0
LWPOLYLINE
5
436
100
AcDbEntity
8
0
100
AcDbPolyline
90
4
70
1
43
0.0
10
22.631399999999999
20
1.9304000000000006
10
22.631399999999999
20
2.4384000000000006
10
21.488399999999999
20
2.4384000000000001
10
21.488399999999999
20
1.9303999999999999
0
LINE
5
437
100
AcDbEntity
8
0
100
AcDbLine
10
26.1526
20
5.8023999999999996
30
0
11
26.1526
21
7.2023999999999999
31
0
0
LINE
5
438
100
AcDbEntity
8
0
100
AcDbLine
10
24.679800000000004
20
6.2784000000000004
30
0
11
24.189800000000005
21
6.2784000000000004
31
0
0
LINE
5
439
100
AcDbEntity
8
0
100
AcDbLine
10
10.432399999999999
20
-20.405200000000004
30
0
11
10.432399999999999
21
-20.895199999999999
31
0
0
LWPOLYLINE
5
440
100
AcDbEntity
8
0
100
AcDbPolyline
90
4
70
1
43
0.0
10
6.0148000000000001
20
-10.85
10
6.0148000000000001
20
-11.050000000000001
10
6.514800000000001
20
-11.050000000000001
10
6.514800000000001
20
-10.85
0
LINE
5
441
100
AcDbEntity
8
0
100
AcDbLine
10
28.152600000000003
20
7.2023999999999999
30
0
11
28.152600000000003
21
5.8023999999999996
31
0
0
LWPOLYLINE
5
442
100
AcDbEntity
8
0
100
AcDbPolyline
90
4
70
1
43
0.0
10
60.248850000000004
20
15.7988
10
60.84875000000001
20
15.798800000000002
10
60.84875000000001
20
16.098800000000001
10
60.248850000000004
20
16.098800000000001
0
LINE
5
443
100
AcDbEntity
8
0
100
AcDbLine
10
60.777600000000007
20
16.602600000000002
30
0
11
60.777600000000007
21
16.1126
31
0
0
LWPOLYLINE
5
444
100
AcDbEntity
8
0
100
AcDbPolyline
90
4
70
1
43
0.0
10
60.248850000000004
20
16.611600000000003
10
60.848750000000003
20
16.611600000000003
10
60.84875000000001
20
16.911600000000004
10
60.248850000000012
20
16.911600000000004
0
LWPOLYLINE
5
445
100
AcDbEntity
8
0
100
AcDbPolyline
90
4
70
1
43
0.0
10
16.840599999999998
20
0.12740000000000001
10
16.840599999999998
20
2.9714
10
18.160599999999999
20
2.9714
10
18.160599999999999
20
0.12740000000000029
0
LWPOLYLINE
5
446
100
AcDbEntity
8
0
100
AcDbPolyline
90
4
70
1
43
0.0
10
46.531200000000005
20
-16.5014
10
46.531200000000005
20
1.498600000000001
10
72.031199999999998
20
1.4985999999999999
10
72.031199999999998
20
-16.501400000000004
0
LWPOLYLINE
5
447
100
AcDbEntity
8
0
100
AcDbPolyline
90
4
70
1
43
0.0
10
31.169000000000004
20
1.4478
10
32.007200000000005
20
1.4478000000000002
10
32.007200000000005
20
1.6510000000000005
10
31.169000000000004
20
1.651
0
LINE
5
448
100
AcDbEntity
8
0
100
AcDbLine
10
32.122
20
-2.0528000000000004
30
0
11
31.632000000000001
21
-2.0528000000000004
31
0
0
LWPOLYLINE
5
449
100
AcDbEntity
8
0
100
AcDbPolyline
90
4
70
1
43
0.0
10
38.544500000000006
20
-11.701549999999997
10
39.494500000000002
20
-11.701549999999997
10
39.494500000000002
20
-11.201449999999999
10
38.544500000000006
20
-11.201449999999999
0
LWPOLYLINE
5
450
100
AcDbEntity
8
0
100
AcDbPolyline
90
4
70
1
43
0.0
10
31.169000000000004
20
-0.50220000000000031
10
32.007200000000005
20
-0.50219999999999998
10
32.007200000000005
20
-0.29899999999999982
10
31.169000000000004
20
-0.29900000000000027
0
LWPOLYLINE
5
451
100
AcDbEntity
8
0
100
AcDbPolyline
90
4
70
1
43
0.0
10
32.007200000000005
20
0.14780000000000018
10
32.007200000000005
20
0.35100000000000026
10
31.169000000000004
20
0.35099999999999992
10
31.169000000000004
20
0.14779999999999982
0
LWPOLYLINE
5
452
100
AcDbEntity
8
0
100
AcDbPolyline
90
4
70
1
43
0.0
10
57.734200000000008
20
-23.367999999999999
10
57.226200000000006
20
-23.368000000000002
10
57.226199999999999
20
-23.875999999999998
10
57.734200000000001
20
-23.875999999999998
0
LWPOLYLINE
5
453
100
AcDbEntity
8
0
100
AcDbPolyline
90
4
70
1
43
0.0
10
31.323
20
-2.1336500000000003
10
31.623000000000001
20
-2.1336500000000003
10
31.623000000000001
20
-1.5337500000000004
10
31.323000000000004
20
-1.5337500000000004
0
LWPOLYLINE
5
454
100
AcDbEntity
8
0
100
AcDbPolyline
90
4
70
1
43
0.0
10
31.169000000000004
20
1.0009999999999999
10
31.169000000000004
20
0.79779999999999984
10
32.007200000000005
20
0.79780000000000018
10
32.007200000000005
20
1.0010000000000003
0
LWPOLYLINE
5
455
100
AcDbEntity
8
0
100
AcDbPolyline
90
4
70
1
43
0.0
10
52.1462
20
-23.368000000000002
10
52.1462
20
-23.876000000000005
10
52.654200000000003
20
-23.875999999999998
10
52.654200000000003
20
-23.367999999999999
0
LWPOLYLINE
5
456
100
AcDbEntity
8
0
100
AcDbPolyline
90
4
70
1
43
0.0
10
34.99145
20
-9.9615999999999989
10
34.391550000000002
20
-9.9616000000000007
10
34.391550000000002
20
-10.2616
10
34.99145
20
-10.2616
0
LWPOLYLINE
5
457
100
AcDbEntity
8
0
100
AcDbPolyline
90
4
70
1
43
0.0
10
60.2742
20
-23.875999999999998
10
60.274200000000008
20
-23.368000000000002
10
59.766200000000005
20
-23.368000000000002
10
59.766200000000005
20
-23.876000000000005
0
LINE
5
458
100
AcDbEntity
8
0
100
AcDbLine
10
7.1420000000000003
20
1.3044
30
0
11
7.1420000000000003
21
1.7944000000000002
31
0
0
LWPOLYLINE
5
459
100
AcDbEntity
8
0
100
AcDbPolyline
90
4
70
1
43
0.0
10
38.544499999999999
20
-10.033050000000001
10
38.544500000000006
20
-10.533149999999999
10
39.494500000000002
20
-10.533149999999999
10
39.494500000000002
20
-10.033050000000001
0
LWPOLYLINE
5
460
100
AcDbEntity
8
0
100
AcDbPolyline
90
4
70
1
43
0.0
10
68.402200000000008
20
8.4738500000000005
10
68.102199999999996
20
8.4738500000000005
10
68.102200000000011
20
7.8739500000000007
10
68.402200000000008
20
7.8739500000000007
0
LWPOLYLINE
5
461
100
AcDbEntity
8
0
100
AcDbPolyline
90
4
70
1
43
0.0
10
67.289400000000001
20
8.4738500000000005
10
67.289400000000015
20
7.8739500000000007
10
67.589400000000012
20
7.8739500000000007
10
67.589400000000012
20
8.4738500000000005
0
LWPOLYLINE
5
462
100
AcDbEntity
8
0
100
AcDbPolyline
90
4
70
1
43
0.0
10
60.632300000000001
20
5.5372500000000002
10
61.582299999999996
20
5.5372500000000002
10
61.582300000000004
20
6.0373500000000018
10
60.632300000000001
20
6.03735
0
LWPOLYLINE
5
463
100
AcDbEntity
8
0
100
AcDbPolyline
90
4
70
1
43
0.0
10
63.74130000000001
20
6.0373500000000018
10
62.791300000000007
20
6.03735
10
62.791300000000007
20
5.5372500000000002
10
63.74130000000001
20
5.5372500000000011
0
LWPOLYLINE
5
464
100
AcDbEntity
8
0
100
AcDbPolyline
90
4
70
1
43
0.0
10
61.582299999999996
20
4.3688500000000001
10
61.582300000000004
20
4.8689500000000008
10
60.632300000000008
20
4.8689499999999999
10
60.632300000000001
20
4.3688500000000001
0
LINE
5
465
100
AcDbEntity
8
0
100
AcDbLine
10
67.598399999999998
20
8.4027999999999992
30
0
11
68.088400000000007
21
8.4027999999999992
31
0
0
LWPOLYLINE
5
466
100
AcDbEntity
8
0
100
AcDbPolyline
90
4
70
1
43
0.0
10
62.791300000000014
20
4.8689499999999999
10
62.791300000000007
20
4.3688500000000001
10
63.741300000000003
20
4.3688500000000001
10
63.74130000000001
20
4.8689499999999999
0
LINE
5
467
100
AcDbEntity
8
0
100
AcDbLine
10
61.531400000000005
20
4.851
30
0
11
61.531400000000005
21
5.5630000000000006
31
0
0
LINE
5
468
100
AcDbEntity
8
0
100
AcDbLine
10
62.839400000000005
20
4.851
30
0
11
62.839400000000005
21
5.5630000000000006
31
0
0
LINE
5
469
100
AcDbEntity
8
0
100
AcDbLine
10
63.690399999999997
20
4.851
30
0
11
63.690399999999997
21
5.5630000000000006
31
0
0
LINE
5
470
100
AcDbEntity
8
0
100
AcDbLine
10
60.329599999999999
20
16.1126
30
0
11
60.329599999999999
21
16.602600000000002
31
0
0
LINE
5
471
100
AcDbEntity
8
0
100
AcDbLine
10
60.680399999999999
20
4.851
30
0
11
60.680399999999999
21
5.5630000000000006
31
0
0
LINE
5
472
100
AcDbEntity
8
0
100
AcDbLine
10
68.088400000000007
20
7.9547999999999996
30
0
11
67.598399999999998
21
7.9547999999999996
31
0
0
LWPOLYLINE
5
473
100
AcDbEntity
8
0
100
AcDbPolyline
90
4
70
1
43
0.0
10
54.051200000000009
20
4.3180499999999995
10
54.051200000000009
20
3.7181500000000001
10
54.351200000000006
20
3.7181500000000001
10
54.351200000000006
20
4.3180499999999995
0
LINE
5
474
100
AcDbEntity
8
0
100
AcDbLine
10
50.885199999999998
20
4.2371999999999996
30
0
11
51.375200000000007
21
4.2371999999999996
31
0
0
LINE
5
475
100
AcDbEntity
8
0
100
AcDbLine
10
54.042200000000008
20
3.7892000000000001
30
0
11
53.552199999999999
21
3.7892000000000001
31
0
0
LINE
5
476
100
AcDbEntity
8
0
100
AcDbLine
10
53.552199999999999
20
4.2371999999999996
30
0
11
54.042200000000008
21
4.2371999999999996
31
0
0
LWPOLYLINE
5
477
100
AcDbEntity
8
0
100
AcDbPolyline
90
4
70
1
43
0.0
10
32.334200000000003
20
-23.875999999999998
10
32.334199999999996
20
-23.368000000000002
10
31.826199999999996
20
-23.368000000000002
10
31.8262
20
-23.875999999999998
0
LWPOLYLINE
5
478
100
AcDbEntity
8
0
100
AcDbPolyline
90
4
70
1
43
0.0
10
28.122600000000002
20
-13.51285
10
28.422600000000003
20
-13.51285
10
28.422600000000003
20
-12.91295
10
28.122600000000006
20
-12.91295
0
LWPOLYLINE
5
479
100
AcDbEntity
8
0
100
AcDbPolyline
90
4
70
1
43
0.0
10
27.6098
20
-13.51285
10
27.609800000000003
20
-12.91295
10
27.309800000000006
20
-12.91295
10
27.309800000000003
20
-13.51285
0
LWPOLYLINE
5
480
100
AcDbEntity
8
0
100
AcDbPolyline
90
4
70
1
43
0.0
10
27.888400000000004
20
-9.4974000000000007
10
27.888400000000004
20
-12.397400000000001
10
26.264400000000002
20
-12.397400000000001
10
26.264400000000002
20
-9.4974000000000007
0
LWPOLYLINE
5
481
100
AcDbEntity
8
0
100
AcDbPolyline
90
8
70
1
43
0.0
10
13.7546
20
-2.5406000000000004
10
9.0546000000000006
20
-2.5406
10
9.0546000000000006
20
0.55940000000000001
10
13.754600000000002
20
0.55940000000000001
10
13.7546
20
-2.5406000000000004
10
12.804599999999999
20
-2.5406000000000004
10
12.804600000000001
20
0.55940000000000034
10
13.754600000000002
20
0.5593999999999999
0
LINE
5
482
100
AcDbEntity
8
0
100
AcDbLine
10
31.0596
20
-12.404200000000001
30
0
11
31.0596
21
-12.8942
31
0
0
LINE
5
483
100
AcDbEntity
8
0
100
AcDbLine
10
32.597200000000001
20
19.680399999999999
30
0
11
33.087200000000003
21
19.680399999999999
31
0
0
LWPOLYLINE
5
484
100
AcDbEntity
8
0
100
AcDbPolyline
90
4
70
1
43
0.0
10
7.0709499999999998
20
0.99539999999999984
10
7.6708499999999997
20
0.99540000000000017
10
7.6708499999999997
20
1.2954000000000001
10
7.0709499999999998
20
1.2953999999999999
0
LINE
5
485
100
AcDbEntity
8
0
100
AcDbLine
10
32.126399999999997
20
-12.404200000000001
30
0
11
32.126399999999997
21
-12.8942
31
0
0
LINE
5
486
100
AcDbEntity
8
0
100
AcDbLine
10
27.888400000000004
20
-11.447400000000002
30
0
11
26.938400000000001
21
-12.397400000000001
31
0
0
LWPOLYLINE
5
487
100
AcDbEntity
8
0
100
AcDbPolyline
90
4
70
1
43
0.0
10
9.0546000000000006
20
-2.5406
10
10.004600000000002
20
-2.5406000000000004
10
10.004600000000002
20
0.55940000000000012
10
9.0546000000000006
20
0.5593999999999999
0
LINE
5
488
100
AcDbEntity
8
0
100
AcDbLine
10
33.087200000000003
20
19.232399999999998
30
0
11
32.597200000000001
21
19.232399999999998
31
0
0
LINE
5
489
100
AcDbEntity
8
0
100
AcDbLine
10
33.193199999999997
20
-12.404200000000001
30
0
11
33.193199999999997
21
-12.8942
31
0
0
LINE
5
490
100
AcDbEntity
8
0
100
AcDbLine
10
13.148200000000001
20
9.8089999999999993
30
0
11
12.658200000000001
21
9.8089999999999993
31
0
0
LWPOLYLINE
5
491
100
AcDbEntity
8
0
100
AcDbPolyline
90
4
70
1
43
0.0
10
37.437100000000001
20
-11.201449999999999
10
36.487099999999998
20
-11.201449999999999
10
36.487100000000005
20
-11.701549999999997
10
37.437100000000001
20
-11.701549999999997
0
LWPOLYLINE
5
492
100
AcDbEntity
8
0
100
AcDbPolyline
90
4
70
1
43
0.0
10
34.391550000000002
20
-11.074400000000001
10
34.99145
20
-11.074400000000001
10
34.99145
20
-10.774400000000002
10
34.391550000000002
20
-10.774400000000002
0
LWPOLYLINE
5
493
100
AcDbEntity
8
0
100
AcDbPolyline
90
4
70
1
43
0.0
10
26.542999999999999
20
-0.60960000000000036
10
27.686
20
-0.60959999999999992
10
27.686
20
-0.10159999999999968
10
26.542999999999999
20
-0.10160000000000016
0
LINE
5
494
100
AcDbEntity
8
0
100
AcDbLine
10
34.4724
20
-10.7606
30
0
11
34.4724
21
-10.270600000000002
31
0
0
LWPOLYLINE
5
495
100
AcDbEntity
8
0
100
AcDbPolyline
90
4
70
1
43
0.0
10
37.437100000000001
20
-10.033050000000001
10
36.487099999999998
20
-10.033050000000001
10
36.487100000000005
20
-10.533149999999999
10
37.437100000000001
20
-10.533149999999999
0
LWPOLYLINE
5
496
100
AcDbEntity
8
0
100
AcDbPolyline
90
4
70
1
43
0.0
10
45.034199999999998
20
-23.875999999999998
10
45.034199999999998
20
-23.367999999999999
10
44.526199999999996
20
-23.368000000000002
10
44.526199999999996
20
-23.876000000000005
0
LWPOLYLINE
5
497
100
AcDbEntity
8
0
100
AcDbPolyline
90
4
70
1
43
0.0
10
36.906200000000005
20
-23.875999999999998
10
37.414200000000008
20
-23.875999999999998
10
37.414200000000001
20
-23.368000000000002
10
36.906199999999998
20
-23.368000000000002
0
LWPOLYLINE
5
498
100
AcDbEntity
8
0
100
AcDbPolyline
90
4
70
1
43
0.0
10
54.686199999999999
20
-23.876000000000005
10
55.194200000000002
20
-23.875999999999998
10
55.194200000000002
20
-23.367999999999999
10
54.686199999999999
20
-23.368000000000002
0
LWPOLYLINE
5
499
100
AcDbEntity
8
0
100
AcDbPolyline
90
4
70
1
43
0.0
10
65.354200000000006
20
-23.368000000000002
10
64.84620000000001
20
-23.368000000000002
10
64.84620000000001
20
-23.875999999999998
10
65.354200000000006
20
-23.875999999999998
0
LWPOLYLINE
5
500
100
AcDbEntity
8
0
100
AcDbPolyline
90
4
70
1
43
0.0
10
62.814200000000007
20
-23.367999999999999
10
62.306200000000004
20
-23.368000000000002
10
62.306200000000004
20
-23.875999999999998
10
62.814200000000007
20
-23.875999999999998
0
LINE
5
501
100
AcDbEntity
8
0
100
AcDbLine
10
34.920400000000001
20
-10.270600000000002
30
0
11
34.920400000000001
21
-10.7606
31
0
0
LINE
5
502
100
AcDbEntity
8
0
100
AcDbLine
10
37.389000000000003
20
-10.5152
30
0
11
37.389000000000003
21
-11.2272
31
0
0
LWPOLYLINE
5
503
100
AcDbEntity
8
0
100
AcDbPolyline
90
4
70
1
43
0.0
10
27.686
20
1.1684000000000003
10
26.542999999999999
20
1.1683999999999999
10
26.542999999999999
20
0.66039999999999976
10
27.686
20
0.66040000000000032
0
LWPOLYLINE
5
504
100
AcDbEntity
8
0
100
AcDbPolyline
90
4
70
1
43
0.0
10
32.135800000000003
20
-2.1336500000000003
10
32.4358
20
-2.1336500000000003
10
32.435800000000008
20
-1.5337500000000004
10
32.135800000000003
20
-1.5337500000000004
0
LINE
5
505
100
AcDbEntity
8
0
100
AcDbLine
10
31.632000000000001
20
-1.6048
30
0
11
32.122
21
-1.6048
31
0
0
LINE
5
506
100
AcDbEntity
8
0
100
AcDbLine
10
36.537999999999997
20
-10.5152
30
0
11
36.537999999999997
21
-11.2272
31
0
0
LINE
5
507
100
AcDbEntity
8
0
100
AcDbLine
10
39.446399999999997
20
-10.5152
30
0
11
39.446399999999997
21
-11.2272
31
0
0
LINE
5
508
100
AcDbEntity
8
0
100
AcDbLine
10
38.595399999999998
20
-10.5152
30
0
11
38.595399999999998
21
-11.2272
31
0
0
LWPOLYLINE
5
509
100
AcDbEntity
8
0
100
AcDbPolyline
90
4
70
1
43
0.0
10
21.767800000000001
20
-2.2352500000000002
10
21.767800000000001
20
-1.6353499999999999
10
21.4678
20
-1.6353500000000001
10
21.467799999999997
20
-2.2352500000000002
0
LWPOLYLINE
5
510
100
AcDbEntity
8
0
100
AcDbPolyline
90
4
70
1
43
0.0
10
47.574200000000005
20
-23.368000000000002
10
47.066200000000002
20
-23.368000000000002
10
47.066200000000002
20
-23.875999999999998
10
47.574199999999998
20
-23.875999999999998
0
LWPOLYLINE
5
511
100
AcDbEntity
8
0
100
AcDbPolyline
90
4
70
1
43
0.0
10
49.606200000000001
20
-23.368000000000002
10
49.606199999999994
20
-23.875999999999998
10
50.114200000000004
20
-23.875999999999998
10
50.114200000000004
20
-23.367999999999999
0
LINE
5
512
100
AcDbEntity
8
0
100
AcDbLine
10
21.776800000000001
20
-1.7064000000000001
30
0
11
22.2668
21
-1.7064000000000001
31
0
0
LWPOLYLINE
5
513
100
AcDbEntity
8
0
100
AcDbPolyline
90
4
70
1
43
0.0
10
16.713249999999999
20
-0.93980000000000008
10
16.113350000000001
20
-0.93980000000000041
10
16.113350000000001
20
-1.2398000000000002
10
16.713249999999999
20
-1.2398
0
LWPOLYLINE
5
514
100
AcDbEntity
8
0
100
AcDbPolyline
90
4
70
1
43
0.0
10
16.205199999999998
20
0.83820000000000017
10
16.205199999999998
20
0.38100000000000012
10
16.789400000000001
20
0.38099999999999995
10
16.789400000000001
20
0.83820000000000006
0
LINE
5
515
100
AcDbEntity
8
0
100
AcDbLine
10
27.974800000000002
20
-19.236599999999999
30
0
11
27.974800000000002
21
-20.636600000000001
31
0
0
LWPOLYLINE
5
516
100
AcDbEntity
8
0
100
AcDbPolyline
90
4
70
1
43
0.0
10
16.113350000000001
20
-2.0526000000000004
10
16.713249999999999
20
-2.0526
10
16.713249999999999
20
-1.7525999999999999
10
16.113350000000001
20
-1.7526000000000002
0
LWPOLYLINE
5
517
100
AcDbEntity
8
0
100
AcDbPolyline
90
4
70
1
43
0.0
10
34.874199999999995
20
-23.875999999999998
10
34.874199999999995
20
-23.368000000000002
10
34.366199999999999
20
-23.368000000000002
10
34.366199999999999
20
-23.876000000000005
0
LWPOLYLINE
5
518
100
AcDbEntity
8
0
100
AcDbPolyline
90
4
70
1
43
0.0
10
39.446200000000005
20
-23.876000000000005
10
39.954200000000007
20
-23.875999999999998
10
39.9542
20
-23.368000000000002
10
39.446199999999997
20
-23.368000000000002
0
LWPOLYLINE
5
519
100
AcDbEntity
8
0
100
AcDbPolyline
90
4
70
1
43
0.0
10
21.488399999999999
20
-0.60960000000000036
10
22.631399999999999
20
-0.60959999999999992
10
22.631399999999999
20
-0.10159999999999968
10
21.488399999999999
20
-0.10160000000000018
0
LWPOLYLINE
5
520
100
AcDbEntity
8
0
100
AcDbPolyline
90
4
70
1
43
0.0
10
41.986199999999997
20
-23.368000000000002
10
41.986199999999997
20
-23.875999999999998
10
42.494199999999999
20
-23.875999999999998
10
42.494200000000006
20
-23.367999999999999
0
LWPOLYLINE
5
521
100
AcDbEntity
8
0
100
AcDbPolyline
90
4
70
1
43
0.0
10
31.115000000000002
20
-10.857600000000001
10
31.115000000000002
20
-9.1576000000000004
10
30.815000000000001
20
-9.1576000000000022
10
30.815000000000001
20
-10.857600000000001
0
LWPOLYLINE
5
522
100
AcDbEntity
8
0
100
AcDbPolyline
90
4
70
1
43
0.0
10
22.631399999999999
20
0.66040000000000032
10
22.631399999999999
20
1.1684000000000003
10
21.488399999999999
20
1.1683999999999999
10
21.488399999999999
20
0.66039999999999976
0
LWPOLYLINE
5
523
100
AcDbEntity
8
0
100
AcDbPolyline
90
4
70
1
43
0.0
10
22.280599999999996
20
-2.2352500000000002
10
22.5806
20
-2.2352500000000002
10
22.5806
20
-1.6353500000000001
10
22.2806
20
-1.6353500000000001
0
LINE
5
524
100
AcDbEntity
8
0
100
AcDbLine
10
22.2668
20
-2.1543999999999999
30
0
11
21.776800000000001
21
-2.1543999999999999
31
0
0
LINE
5
525
100
AcDbEntity
8
0
100
AcDbLine
10
7.5899999999999999
20
1.7944000000000002
30
0
11
7.5899999999999999
21
1.3044
31
0
0
LWPOLYLINE
5
526
100
AcDbEntity
8
0
100
AcDbPolyline
90
4
70
1
43
0.0
10
33.096200000000003
20
-10.857600000000001
10
33.096200000000003
20
-9.1576000000000004
10
32.796199999999999
20
-9.1576000000000022
10
32.796199999999999
20
-10.857600000000001
0
LINE
5
527
100
AcDbEntity
8
0
100
AcDbLine
10
32.8172
20
-9.2075999999999993
30
0
11
31.089200000000005
21
-9.2075999999999993
31
0
0
LINE
5
528
100
AcDbEntity
8
0
100
AcDbLine
10
32.8172
20
-10.807600000000001
30
0
11
31.089200000000005
21
-10.807600000000001
31
0
0
LINE
5
529
100
AcDbEntity
8
0
100
AcDbLine
10
28.108800000000002
20
-13.432000000000002
30
0
11
27.6188
21
-13.432000000000002
31
0
0
LINE
5
530
100
AcDbEntity
8
0
100
AcDbLine
10
16.632400000000001
20
-1.2536
30
0
11
16.632400000000001
21
-1.7436000000000003
31
0
0
LINE
5
531
100
AcDbEntity
8
0
100
AcDbLine
10
27.6188
20
-12.984
30
0
11
28.108800000000002
21
-12.984
31
0
0
LINE
5
532
100
AcDbEntity
8
0
100
AcDbLine
10
16.1844
20
-1.7436000000000003
30
0
11
16.1844
21
-1.2536
31
0
0
LWPOLYLINE
5
533
100
AcDbEntity
8
0
100
AcDbPolyline
90
4
70
1
43
0.0
10
6.514800000000001
20
-12.85
10
6.0148000000000001
20
-12.85
10
6.0148000000000001
20
-13.049999999999999
10
6.514800000000001
20
-13.049999999999999
0
LWPOLYLINE
5
534
100
AcDbEntity
8
0
100
AcDbPolyline
90
4
70
1
43
0.0
10
6.514800000000001
20
-15.725000000000001
10
6.0148000000000001
20
-15.725000000000001
10
6.0148000000000001
20
-16.125000000000004
10
6.514800000000001
20
-16.125000000000004
0
LWPOLYLINE
5
535
100
AcDbEntity
8
0
100
AcDbPolyline
90
4
70
1
43
0.0
10
7.9199999999999999
20
-19.60885
10
7.6200000000000001
20
-19.60885
10
7.6200000000000001
20
-20.208750000000002
10
7.9199999999999999
20
-20.208750000000002
0
LINE
5
536
100
AcDbEntity
8
0
100
AcDbLine
10
7.1210000000000004
20
-18.5974
30
0
11
7.6109999999999998
21
-18.5974
31
0
0
LWPOLYLINE
5
537
100
AcDbEntity
8
0
100
AcDbPolyline
90
4
70
1
43
0.0
10
7.6200000000000001
20
-18.516550000000002
10
7.6200000000000001
20
-19.116450000000004
10
7.9199999999999999
20
-19.116450000000004
10
7.9199999999999999
20
-18.516550000000002
0
LWPOLYLINE
5
538
100
AcDbEntity
8
0
100
AcDbPolyline
90
4
70
1
43
0.0
10
7.1072000000000015
20
-19.116450000000004
10
7.1072000000000015
20
-18.516550000000002
10
6.8072000000000008
20
-18.516550000000002
10
6.8072000000000008
20
-19.116450000000004
0
LWPOLYLINE
5
539
100
AcDbEntity
8
0
100
AcDbPolyline
90
4
70
1
43
0.0
10
16.164149999999999
20
23.652200000000001
10
16.764049999999997
20
23.652200000000001
10
16.764049999999997
20
23.952200000000001
10
16.164149999999999
20
23.952200000000001
0
LWPOLYLINE
5
540
100
AcDbEntity
8
0
100
AcDbPolyline
90
4
70
1
43
0.0
10
6.5098000000000011
20
-13.85
10
6.0098000000000003
20
-13.85
10
6.0098000000000003
20
-14.050000000000001
10
6.5098000000000011
20
-14.050000000000001
0
LWPOLYLINE
5
541
100
AcDbEntity
8
0
100
AcDbPolyline
90
4
70
1
43
0.0
10
7.1072000000000015
20
-20.208750000000002
10
7.1072000000000015
20
-19.608850000000004
10
6.8072000000000008
20
-19.60885
10
6.8072000000000008
20
-20.208750000000002
0
LINE
5
542
100
AcDbEntity
8
0
100
AcDbLine
10
7.6109999999999998
20
-19.045400000000001
30
0
11
7.1210000000000004
21
-19.045400000000001
31
0
0
LWPOLYLINE
5
543
100
AcDbEntity
8
0
100
AcDbPolyline
90
4
70
1
43
0.0
10
17.434050000000003
20
26.771600000000003
10
17.434050000000003
20
26.471599999999999
10
18.033950000000004
20
26.471599999999999
10
18.033950000000004
20
26.771599999999999
0
LINE
5
544
100
AcDbEntity
8
0
100
AcDbLine
10
16.235199999999999
20
23.961200000000002
30
0
11
16.235199999999999
21
24.4512
31
0
0
LINE
5
545
100
AcDbEntity
8
0
100
AcDbLine
10
7.1210000000000004
20
-19.689599999999999
30
0
11
7.6109999999999998
21
-19.689599999999999
31
0
0
LINE
5
546
100
AcDbEntity
8
0
100
AcDbLine
10
16.683199999999999
20
24.4512
30
0
11
16.683199999999999
21
23.961200000000002
31
0
0
LWPOLYLINE
5
547
100
AcDbEntity
8
0
100
AcDbPolyline
90
4
70
1
43
0.0
10
17.434050000000003
20
25.658800000000003
10
18.033950000000004
20
25.658800000000003
10
18.033950000000004
20
25.958800000000004
10
17.434050000000003
20
25.958800000000007
0
LINE
5
548
100
AcDbEntity
8
0
100
AcDbLine
10
7.6109999999999998
20
-20.137599999999999
30
0
11
7.1210000000000004
21
-20.137599999999999
31
0
0
LWPOLYLINE
5
549
100
AcDbEntity
8
0
100
AcDbPolyline
90
4
70
1
43
0.0
10
16.764049999999997
20
24.765000000000001
10
16.164149999999999
20
24.765000000000001
10
16.164149999999999
20
24.465000000000003
10
16.764049999999997
20
24.465
0
LINE
5
550
100
AcDbEntity
8
0
100
AcDbLine
10
6.7447999999999997
20
-17.02
30
0
11
6.2648000000000001
21
-17.02
31
0
0
LINE
5
551
100
AcDbEntity
8
0
100
AcDbLine
10
18.775200000000002
20
23.961200000000002
30
0
11
18.775200000000002
21
24.4512
31
0
0
LWPOLYLINE
5
552
100
AcDbEntity
8
0
100
AcDbPolyline
90
4
70
1
43
0.0
10
11.435000000000002
20
-14.6
10
15.235000000000001
20
-14.6
10
15.235000000000001
20
-10.800000000000001
10
11.435000000000002
20
-10.800000000000001
0
LWPOLYLINE
5
553
100
AcDbEntity
8
0
100
AcDbPolyline
90
4
70
1
43
0.0
10
13.78435
20
-17.843500000000002
10
13.78435
20
-16.893500000000003
10
13.284250000000002
20
-16.893500000000003
10
13.284250000000002
20
-17.843500000000002
0
LWPOLYLINE
5
554
100
AcDbEntity
8
0
100
AcDbPolyline
90
4
70
1
43
0.0
10
8.8743500000000015
20
-21.201799999999999
10
9.4742500000000014
20
-21.201800000000006
10
9.4742500000000014
20
-20.901800000000005
10
8.8743500000000015
20
-20.901800000000001
0
LWPOLYLINE
5
555
100
AcDbEntity
8
0
100
AcDbPolyline
90
4
70
1
43
0.0
10
13.212800000000001
20
-16.129049999999999
10
13.5128
20
-16.129049999999999
10
13.5128
20
-15.529150000000001
10
13.212800000000001
20
-15.529150000000001
0
LWPOLYLINE
5
556
100
AcDbEntity
8
0
100
AcDbPolyline
90
4
70
1
43
0.0
10
14.452650000000002
20
-17.843500000000002
10
14.952750000000004
20
-17.843500000000002
10
14.952750000000002
20
-16.893500000000003
10
14.45265
20
-16.893500000000003
0
LWPOLYLINE
5
557
100
AcDbEntity
8
0
100
AcDbPolyline
90
4
70
1
43
0.0
10
6.0148000000000001
20
-10.050000000000001
10
6.0148000000000001
20
-10.450000000000001
10
6.514800000000001
20
-10.450000000000001
10
6.514800000000001
20
-10.050000000000001
0
LWPOLYLINE
5
558
100
AcDbEntity
8
0
100
AcDbPolyline
90
4
70
1
43
0.0
10
10.503450000000001
20
-20.3962
10
10.503450000000001
20
-20.096200000000003
10
9.903550000000001
20
-20.0962
10
9.903550000000001
20
-20.396199999999997
0
LWPOLYLINE
5
559
100
AcDbEntity
8
0
100
AcDbPolyline
90
4
70
1
43
0.0
10
9.903550000000001
20
-21.209000000000003
10
10.503450000000001
20
-21.209000000000003
10
10.503450000000001
20
-20.908999999999999
10
9.903550000000001
20
-20.908999999999999
0
LINE
5
560
100
AcDbEntity
8
0
100
AcDbLine
10
13.521800000000002
20
-15.600199999999999
30
0
11
14.011800000000001
21
-15.600199999999999
31
0
0
LWPOLYLINE
5
561
100
AcDbEntity
8
0
100
AcDbPolyline
90
4
70
1
43
0.0
10
18.704050000000002
20
23.652200000000004
10
19.303950000000004
20
23.652200000000001
10
19.303950000000004
20
23.952200000000001
10
18.704050000000002
20
23.952200000000001
0
LWPOLYLINE
5
562
100
AcDbEntity
8
0
100
AcDbPolyline
90
4
70
1
43
0.0
10
6.514800000000001
20
-11.550000000000001
10
6.514800000000001
20
-11.35
10
6.0148000000000001
20
-11.35
10
6.0148000000000001
20
-11.550000000000001
0
LWPOLYLINE
5
563
100
AcDbEntity
8
0
100
AcDbPolyline
90
4
70
1
43
0.0
10
6.514800000000001
20
-12.350000000000001
10
6.0148000000000001
20
-12.350000000000001
10
6.0148000000000001
20
-12.550000000000001
10
6.514800000000001
20
-12.550000000000001
0
LINE
5
564
100
AcDbEntity
8
0
100
AcDbLine
10
9.3933999999999997
20
-20.402799999999999
30
0
11
9.3933999999999997
21
-20.892800000000001
31
0
0
LWPOLYLINE
5
565
100
AcDbEntity
8
0
100
AcDbPolyline
90
4
70
1
43
0.0
10
11.734850000000002
20
-8.0518000000000018
10
11.134950000000002
20
-8.0518000000000018
10
11.134950000000002
20
-8.3518000000000008
10
11.734850000000002
20
-8.3518000000000008
0
LINE
5
566
100
AcDbEntity
8
0
100
AcDbLine
10
13.766400000000001
20
-17.7926
30
0
11
14.478400000000002
21
-17.7926
31
0
0
LWPOLYLINE
5
567
100
AcDbEntity
8
0
100
AcDbPolyline
90
4
70
1
43
0.0
10
10.210749999999999
20
-14.198600000000003
10
10.810649999999999
20
-14.198600000000001
10
10.810649999999999
20
-13.898600000000004
10
10.210749999999999
20
-13.898600000000004
0
LWPOLYLINE
5
568
100
AcDbEntity
8
0
100
AcDbPolyline
90
4
70
1
43
0.0
10
6.0148000000000001
20
-11.850000000000001
10
6.0148000000000001
20
-12.050000000000001
10
6.514800000000001
20
-12.050000000000001
10
6.514800000000001
20
-11.850000000000001
0
LWPOLYLINE
5
569
100
AcDbEntity
8
0
100
AcDbPolyline
90
4
70
1
43
0.0
10
14.325599999999998
20
-15.529150000000001
10
14.025600000000001
20
-15.529150000000001
10
14.025600000000001
20
-16.129049999999999
10
14.325599999999998
20
-16.129049999999999
0
LWPOLYLINE
5
570
100
AcDbEntity
8
0
100
AcDbPolyline
90
4
70
1
43
0.0
10
10.810649999999999
20
-15.011399999999998
10
10.810649999999999
20
-14.711399999999999
10
10.210749999999999
20
-14.711400000000001
10
10.210749999999999
20
-15.011399999999998
0
LWPOLYLINE
5
571
100
AcDbEntity
8
0
100
AcDbPolyline
90
4
70
1
43
0.0
10
8.8743500000000015
20
-20.388999999999999
10
9.4742500000000014
20
-20.389000000000003
10
9.4742500000000014
20
-20.089000000000002
10
8.8743500000000015
20
-20.089000000000002
0
LWPOLYLINE
5
572
100
AcDbEntity
8
0
100
AcDbPolyline
90
4
70
1
43
0.0
10
19.303950000000004
20
24.465
10
19.303950000000004
20
24.764999999999997
10
18.704050000000002
20
24.765000000000001
10
18.704050000000002
20
24.465
0
LWPOLYLINE
5
573
100
AcDbEntity
8
0
100
AcDbPolyline
90
4
70
1
43
0.0
10
14.65
20
-21.953800000000001
10
14.65
20
-24.883800000000001
10
10.75
20
-24.883800000000001
10
10.75
20
-21.953800000000001
0
LWPOLYLINE
5
574
100
AcDbEntity
8
0
100
AcDbPolyline
90
4
70
1
43
0.0
10
13.332600000000001
20
-7.1120000000000001
10
13.332600000000001
20
-6.7564000000000002
10
13.129400000000002
20
-6.7564000000000002
10
13.129400000000002
20
-7.1120000000000001
0
LWPOLYLINE
5
575
100
AcDbEntity
8
0
100
AcDbPolyline
90
4
70
1
43
0.0
10
13.129400000000002
20
-8.4836000000000009
10
13.129400000000002
20
-8.8392000000000017
10
13.332600000000001
20
-8.8392000000000017
10
13.332600000000001
20
-8.4836000000000009
0
LINE
5
576
100
AcDbEntity
8
0
100
AcDbLine
10
11.654
20
-7.5528000000000004
30
0
11
11.654
21
-8.0427999999999997
31
0
0
LWPOLYLINE
5
577
100
AcDbEntity
8
0
100
AcDbPolyline
90
4
70
1
43
0.0
10
11.734850000000002
20
-7.2390000000000008
10
11.134950000000002
20
-7.2390000000000008
10
11.134950000000002
20
-7.5390000000000015
10
11.734850000000002
20
-7.5390000000000015
0
LINE
5
578
100
AcDbEntity
8
0
100
AcDbLine
10
13.766400000000001
20
-16.941600000000001
30
0
11
14.478400000000002
21
-16.941600000000001
31
0
0
LWPOLYLINE
5
579
100
AcDbEntity
8
0
100
AcDbPolyline
90
4
70
1
43
0.0
10
12.4794
20
-8.8392000000000017
10
12.682599999999999
20
-8.8392000000000017
10
12.682599999999999
20
-8.4836000000000009
10
12.4794
20
-8.4836000000000009
0
LWPOLYLINE
5
580
100
AcDbEntity
8
0
100
AcDbPolyline
90
4
70
1
43
0.0
10
12.682599999999999
20
-6.7564000000000002
10
12.4794
20
-6.7564000000000002
10
12.4794
20
-7.1120000000000001
10
12.682599999999999
20
-7.1120000000000001
0
LINE
5
581
100
AcDbEntity
8
0
100
AcDbLine
10
10.739599999999999
20
-14.207599999999999
30
0
11
10.739599999999999
21
-14.6976
31
0
0
LWPOLYLINE
5
582
100
AcDbEntity
8
0
100
AcDbPolyline
90
4
70
1
43
0.0
10
6.5098000000000011
20
-14.350000000000001
10
6.0098000000000003
20
-14.350000000000001
10
6.0098000000000003
20
-14.550000000000001
10
6.5098000000000011
20
-14.550000000000001
0
LINE
5
583
100
AcDbEntity
8
0
100
AcDbLine
10
10.291600000000001
20
-14.6976
30
0
11
10.291600000000001
21
-14.207599999999999
31
0
0
LINE
5
584
100
AcDbEntity
8
0
100
AcDbLine
10
11.206
20
-8.0427999999999997
30
0
11
11.206
21
-7.5528000000000004
31
0
0
LINE
5
585
100
AcDbEntity
8
0
100
AcDbLine
10
8.1646000000000001
20
-6.7215999999999996
30
0
11
9.5646000000000004
21
-6.7215999999999996
31
0
0
LINE
5
586
100
AcDbEntity
8
0
100
AcDbLine
10
14.011800000000001
20
-16.048200000000001
30
0
11
13.521800000000002
21
-16.048200000000001
31
0
0
LINE
5
587
100
AcDbEntity
8
0
100
AcDbLine
10
8.9453999999999994
20
-20.892800000000001
30
0
11
8.9453999999999994
21
-20.402799999999999
31
0
0
LWPOLYLINE
5
588
100
AcDbEntity
8
0
100
AcDbPolyline
90
4
70
1
43
0.0
10
6.514800000000001
20
-15.350000000000001
10
6.514800000000001
20
-14.950000000000001
10
6.0148000000000001
20
-14.950000000000001
10
6.0148000000000001
20
-15.350000000000001
0
LWPOLYLINE
5
589
100
AcDbEntity
8
0
100
AcDbPolyline
90
4
70
1
43
0.0
10
9.5646000000000004
20
-7.2216000000000005
10
9.5646000000000004
20
-7.0216000000000003
10
8.1646000000000001
20
-7.0216000000000003
10
8.1646000000000001
20
-7.2216000000000005
0
LINE
5
590
100
AcDbEntity
8
0
100
AcDbLine
10
19.223199999999999
20
24.4512
30
0
11
19.223199999999999
21
23.961200000000002
31
0
0
LWPOLYLINE
5
591
100
AcDbEntity
8
0
100
AcDbPolyline
90
4
70
1
43
0.0
10
6.514800000000001
20
-13.35
10
6.0148000000000001
20
-13.35
10
6.0148000000000001
20
-13.550000000000001
10
6.514800000000001
20
-13.550000000000001
0
LINE
5
592
100
AcDbEntity
8
0
100
AcDbLine
10
17.953199999999999
20
26.457800000000002
30
0
11
17.953199999999999
21
25.967800000000004
31
0
0
LINE
5
593
100
AcDbEntity
8
0
100
AcDbLine
10
6.1719999999999997
20
-6.7305999999999999
30
0
11
4.242
21
-6.7305999999999999
31
0
0
LINE
5
594
100
AcDbEntity
8
0
100
AcDbLine
10
6.7447999999999997
20
-8.3800000000000008
30
0
11
6.264800000000001
21
-8.3800000000000008
31
0
0
LINE
5
595
100
AcDbEntity
8
0
100
AcDbLine
10
9.5646000000000004
20
-8.7216000000000005
30
0
11
8.1646000000000001
21
-8.7216000000000005
31
0
0
ENDSEC
0
SECTION
2
OBJECTS
0
DICTIONARY
5
C
100
AcDbDictionary
3
ACAD_GROUP
350
D
3
ACAD_MLINESTYLE
350
17
0
DICTIONARY
5
D
100
AcDbDictionary
0
DICTIONARY
5
1A
330
C
100
AcDbDictionary
0
DICTIONARY
5
17
100
AcDbDictionary
0
ENDSEC
0
EOF
